<?xml version="1.0" encoding="utf-8"?>
<!-- Generator: Adobe Illustrator 16.0.4, SVG Export Plug-In . SVG Version: 6.00 Build 0)  -->
<!DOCTYPE svg PUBLIC "-//W3C//DTD SVG 1.1//EN" "http://www.w3.org/Graphics/SVG/1.1/DTD/svg11.dtd">
<svg version="1.1" id="Ebene_1" xmlns="http://www.w3.org/2000/svg" xmlns:xlink="http://www.w3.org/1999/xlink" x="0px" y="0px"
	 width="251.63px" height="203.261px" viewBox="0 0 251.63 203.261" enable-background="new 0 0 251.63 203.261"
	 xml:space="preserve">
<g>
	<defs>
		<rect id="SVGID_1_" width="251.63" height="203.261"/>
	</defs>
	<clipPath id="SVGID_2_">
		<use xlink:href="#SVGID_1_"  overflow="visible"/>
	</clipPath>
	<path clip-path="url(#SVGID_2_)" fill-rule="evenodd" clip-rule="evenodd" fill="#D6DDE9" d="M162.436,187.576
		c-0.285,0.457-0.6,1.143-0.485,1.828c0.086,0.486,0.257,0.972,0.457,1.429c0.343,0.828,0.657,1.686,0.571,2.857
		c-0.086,0.914,0.114,1.2,0.371,1.6c0.229,0.343,0.514,0.743,0.771,1.486c0.343,0.971,0.229,1.542,0.114,2.057
		c-0.058,0.343-0.114,0.629,0.171,1.028c0.314,0.457,0.457,0.515,0.628,0.601c0.258,0.114,0.515,0.229,1.028,0.914
		c0.172,0.257,0.314,0.457,0.457,0.657c0.314,0.485,0.429,0.6,0.856,0.543c0.857-0.144,2.228,0.457,2.713,0.687
		c0.114-0.059,0.229-0.087,0.372-0.115c1.285-0.314,2.084-0.571,2.741-0.8c0.942-0.286,1.542-0.486,2.685-0.571
		c0.714-0.058,1.199,0.057,1.57,0.143c0.429,0.114,0.628,0.171,1.114-0.829c0.343-0.714,0.57-1.229,0.742-1.628
		c0.313-0.715,0.457-1.029,0.856-1.372c0.086-0.057,0.172-0.229,0.257-0.429c0.343-0.714,0.771-1.628,2.514-1.628h0.028h1.113
		c0.058,0,0.114,0,0.2-0.028c0.2,0,0.543-0.029,1.828-0.058c0.942-0.028,1.713,0.058,2.341,0.086c0.601,0.057,1,0.086,1.143,0.028
		c0.058-0.028-0.086-0.028-0.171-0.2c-0.086-0.229-0.229-0.514-0.371-0.8c-0.2-0.4-0.4-0.799-0.515-1.171
		c-0.257-0.743-0.199-1.286,0.544-1.543c0.599-0.2,1.37-0.687,1.798-0.972c-0.2-0.686-0.143-1.6-0.086-2.286
		c0.029-0.229,0.029-0.457,0.029-0.6c0-0.457-0.086-1.058-0.286-1.771c-0.199-0.629-0.514-1.343-0.942-2.2
		c-0.914-1.742-1.057-1.857-1.827-2.485l-0.114-0.114c-0.229-0.172-0.657-0.172-1.143-0.2c-1.057,0-2.228,0-2.969-1.515
		c-0.801-1.657-2.143-1.571-2.828-1.514h-0.172c-0.143,0.028-0.285,0.2-0.428,0.371c-0.258,0.314-0.543,0.657-1.113,0.629
		c-0.144,0-0.258-0.029-0.372-0.029c-0.514-0.028-0.942-0.057-1.656,0.058c-0.257,0.058-0.457,0.286-0.686,0.544
		c-0.343,0.428-0.742,0.913-1.57,1.142c-0.743,0.229-1.313,0.314-1.856,0.429c-0.429,0.086-0.856,0.172-1.371,0.286
		c-0.343,0.114-0.313,0.687-0.285,1.171c0.028,0.601,0.057,1.114-0.4,1.371c-0.828,0.486-1.484-0.457-2.17-1.457l-0.086-0.114
		c-0.028-0.028-0.229,0.086-0.514,0.258c-0.485,0.343-1.085,0.942-1.6,1.458c-0.313,0.313-0.6,0.627-0.828,0.799
		c-0.398,0.343-0.285,1-0.199,1.629c0.057,0.313,0.114,0.6,0.114,0.856c0,1.029-0.486,1.086-1.171,1.2
		c-0.172,0.028-0.343,0.028-0.515,0.086c-0.742,0.229-1.057,0-1.199-0.485c-0.056-0.2-0.056-0.458-0.056-0.715v-0.086
		C162.58,187.975,162.521,187.805,162.436,187.576"/>
	<path clip-path="url(#SVGID_2_)" fill-rule="evenodd" clip-rule="evenodd" fill="#D6DDE9" d="M127.11,75.49
		c-0.6,0.371-1.77,1-2.655,1c-0.286,0-0.315,0.143-0.343,0.371c-0.086,0.372-0.172,0.829-0.571,1.315
		c-0.429,0.571-1.115,1.057-1.686,1.485c-0.456,0.314-0.828,0.572-0.828,0.657c-0.028,0.086-0.028,0.286,0,0.486
		c0.029,0.658,0.086,1.486-0.514,2.171c-0.285,0.315-0.399,0.601-0.485,0.886c-0.143,0.4-0.257,0.8-0.772,1.229
		c-0.599,0.514-0.684,0.486-0.97,0.428c-0.028,0-0.086-0.028-0.457,0.115c-0.343,0.114-0.486,0.314-0.686,0.543
		c-0.343,0.4-0.742,0.885-1.827,1.428c-1.313,0.686-1.6,0.515-2.027,0.286c-0.172-0.114-0.372-0.2-0.828-0.2
		c-0.744,0.029-0.8,0.371-0.943,0.943c-0.057,0.314-0.143,0.685-0.314,1.086c-0.371,0.971-0.886,1.256-1.456,1.314
		c0.028,0.857,0.028,2.571-0.372,3.086c-0.143,0.199,0.029,0.6,0.286,1.114c0.142,0.371,0.343,0.772,0.457,1.257
		c0.085,0.2,0.114,0.4,0.171,0.571c0.114,0.6,0.142,0.743,2.056,1.715c1.828,0.971,1.999,1.114,2.513,1.656
		c0.171,0.172,0.399,0.429,0.828,0.801h-0.028c1.313,1.171,1.799,1.229,3.712,1.485l0.343,0.028c1.114,0.144,1.97,0.172,2.913,0.086
		c0.914-0.086,1.97-0.286,3.484-0.6c1.398-0.314,2.142-0.743,2.513-1.228c0.343-0.401,0.371-0.858,0.343-1.172
		c0-0.429-0.028-0.943,0.114-1.457c0.114-0.543,0.428-1.115,1.028-1.629c0.6-0.457,1.542-0.857,2.77-1.229
		c1.171-0.342,2.628-0.685,4.171-1.028c1.198-0.286,1.969-0.371,2.568-0.429c0.886-0.086,1.343-0.114,2.285-0.857h0.028v-0.028
		c0.771-0.6,1.115-0.858,1.257-1.143c0.114-0.2,0.143-0.486,0.171-1.058c0.028-0.142,0.028-0.342,0.058-0.485
		c0.057-0.972,0.143-1.629,0.343-2.172c0.199-0.571,0.57-0.971,1.228-1.313c0.942-0.515,1.771-0.458,2.799-0.401
		c0.343,0.029,0.686,0.029,1.113,0.029c0.772,0,1.343,0.143,1.8,0.257c0.456,0.085,0.828,0.171,1.171,0.085
		c0.342-0.114,0.6-0.285,0.856-0.485c0.343-0.286,0.714-0.571,1.371-0.771c0.999-0.315,1.685,0.371,2.312,1.028
		c0.2,0.228,0.43,0.457,0.629,0.571c0.228,0.172,0.685,0.144,1.142,0.029c0.6-0.171,1.229-0.486,1.686-0.915h0.028
		c0.8-0.656,1.599-0.942,1.971-1.056c0.057-0.172,0.085-0.371,0.144-0.515c0.228-1.114,0.541-2.171,0.827-3.114
		c0.399-1.4,0.771-2.628,0.828-3.628v-0.972v-0.428c-0.771-0.201-2.771-0.714-2.999-0.772c-0.199-0.057-0.741-0.429-1.199-0.828
		c-0.343-0.315-0.656-0.657-0.771-0.943c-0.029-0.029-0.429-0.115-0.942-0.201c-0.686-0.114-1.485-0.256-2.143-0.657
		c-0.742-0.457-1.484-0.343-2.113-0.228c-0.229,0.029-0.456,0.057-0.656,0.057c-0.2,0.029-0.371,0.086-0.543,0.171
		c-0.399,0.2-0.914,0.458-2.37,0.458c-0.828,0-0.914,0.4-0.999,0.828c-0.144,0.6-0.286,1.229-1.2,1.543
		c-1.256,0.457-1.741-0.2-2.198-0.829c-0.144-0.228-0.314-0.457-0.485-0.514c-0.343-0.143-1.114,0.286-1.885,0.658
		c-0.543,0.285-1.086,0.571-1.57,0.714c-0.4,0.114-0.429,0.428-0.486,0.743c-0.028,0.371-0.057,0.742-0.371,1.086
		c-0.4,0.457-0.742,0.599-1.199,0.828c-0.229,0.086-0.484,0.2-0.8,0.4c-0.828,0.486-1.028,0.343-1.57,0
		c-0.172-0.114-0.4-0.286-0.771-0.429c-0.942-0.428-0.8-0.857-0.628-1.4c0.085-0.228,0.171-0.514-0.2-0.914
		c-0.314-0.343-0.628-0.543-0.856-0.686c-0.629-0.428-0.972-0.657-0.914-1.885c0-0.115,0.086-0.172,0.057-0.172
		c-0.199,0-0.57,0.2-0.942,0.372c-0.485,0.257-0.941,0.485-1.342,0.485c-0.285,0-0.343,0.172-0.485,0.629
		c-0.086,0.229-0.172,0.514-0.314,0.914c-0.143,0.343-0.342,0.6-0.571,0.772c-0.229,0.142-0.457,0.228-0.714,0.228
		c-0.229,0-0.457-0.028-0.686-0.114c-0.542-0.229-1.057-0.686-1.428-1.172C127.311,75.747,127.196,75.633,127.11,75.49"/>
	<path clip-path="url(#SVGID_2_)" fill-rule="evenodd" clip-rule="evenodd" fill="#D6DDE9" d="M78.62,91.29
		c0.543,0.143,1.885,0.629,2.428,1.829v0.029l0.085,0.17c0.2,0.401,0.286,0.601,0.314,0.629c0.057,0,0.229,0,0.543-0.056
		c0.171,0,0.371-0.03,0.6-0.058c0.371-0.028,0.714-0.057,1.027-0.086c1-0.057,1.857-0.143,1.914-0.285
		c0.143-0.457,0.371-0.571,0.685-0.743c0.171-0.086,0.372-0.172,0.6-0.371c0.342-0.287,0.456-0.687,0.6-1.058
		c0.085-0.314,0.171-0.571,0.343-0.8c0.313-0.4,0.656-0.314,1.027-0.257c0.058,0.029,0.114,0.057,0.172,0.057
		c0.028,0,0.085-0.028,0.142-0.257c0.057-0.4-0.028-0.857-0.114-1.228c-0.028-0.172-0.086-0.343-0.086-0.515
		c-0.085-0.657,0.058-1.086,0.828-1.2c0.543-0.057,1.143,0.058,1.914,0.172c0.743,0.114,1.657,0.285,2.713,0.285h0.971
		c1.342,0,1.77,0,3.37,1.029c1.399,0.886,2.513,0.772,3.427,0.657c0.171-0.029,0.343-0.029,0.514-0.057
		c0.285-0.028,0.513-0.143,0.771-0.257c0.57-0.286,1.142-0.571,2.256-0.086c0.542,0.257,0.971,0.485,1.342,0.714
		c0.599,0.314,1.028,0.572,1.513,0.572c0.172,0,0.343,0.029,0.514,0.029c0.571,0.056,1.057,0.085,1.371-0.744
		c0.143-0.343,0.229-0.685,0.285-0.971c0.229-0.971,0.343-1.572,1.742-1.6c0.714-0.028,1,0.143,1.257,0.286
		c0.2,0.114,0.315,0.199,1.228-0.286c0.971-0.485,1.285-0.886,1.571-1.2c0.257-0.343,0.485-0.6,1.057-0.8
		c0.599-0.229,0.8-0.172,0.942-0.143c0.057,0-0.057-0.029,0.199-0.257c0.343-0.285,0.429-0.542,0.543-0.857
		c0.115-0.343,0.229-0.743,0.628-1.172c0.401-0.428,0.343-1.056,0.315-1.543c-0.029-0.285-0.029-0.513,0-0.713
		c0.114-0.401,0.599-0.772,1.199-1.201c0.515-0.371,1.142-0.799,1.514-1.286c0.256-0.343,0.314-0.685,0.371-0.971
		c0.143-0.629,0.228-1.057,1.2-1.057c0.628,0,1.542-0.457,2.084-0.8c-0.686-0.8-1.428-1.657-1.428-2.485V72.29
		c-0.057-0.228-0.285-0.399-0.571-0.514c-0.371-0.171-0.771-0.229-1.113-0.229c-0.115,0-0.229,0-0.315,0.029
		c-0.542,0.114-1.057-0.372-1.656-0.886c-0.543-0.486-1.171-1.057-1.799-1.171c-0.4-0.057-0.886-0.029-1.399,0
		c-1.343,0.057-2.885,0.114-4.399-0.972c-1.113-0.828-0.999-1.457-0.599-2.028c0.143-0.171,0.286-0.286,0.428-0.429
		c0.2-0.229,0.429-0.429,0.315-0.6c-0.172-0.257-0.401-0.142-0.772,0.029c-0.628,0.257-1.542,0.657-3.055,0.6
		c-2.056-0.057-2.17-0.743-2.285-1.486c-0.029-0.285-0.057-0.571-0.457-0.742c-0.2-0.086-0.342-0.144-0.457-0.115
		c-0.057,0-0.114,0.029-0.142,0.057c-0.029,0.058-0.058,0.172-0.086,0.315c-0.028,0.314,0.057,0.743,0.2,1.085l0.143,0.286
		c0.17,0.428,0.285,0.657,0.228,0.914c-0.058,0.343-0.257,0.458-0.714,0.743l-0.057,0.028c-0.229,0.144-0.572,0.457-0.943,0.801
		c-0.77,0.714-1.57,1.457-2.141,1.085c-0.429-0.285-1.743-1.543-2.942-2.657l-0.513-0.486c-0.943-0.885-0.543-1.743-0.115-2.629
		c0.229-0.513,0.486-1.028,0.314-1.457c-0.057-0.142-0.114-0.2-0.143-0.171c-0.114,0.057-0.285,0.171-0.457,0.286
		c-0.513,0.372-1.113,0.771-1.77,0.4c-0.285-0.143-0.486-0.286-0.657-0.4c-0.428-0.315-0.799-0.543-2.37-0.772
		c-1.114-0.142-2.313-0.657-3.341-1.285c-1.257-0.743-2.256-1.657-2.456-2.229v-0.029c-0.086-0.199-0.572-0.257-1.114-0.228
		c-0.657,0-1.313,0.143-1.656,0.257h0.028c-0.028,0-0.057,0-0.086,0.029c-0.028,0-0.142,0.2-0.285,0.457
		c-0.4,0.771-0.942,1.829-2.399,1.743c-1.342-0.058-1.57-0.629-1.542-1.314c0.029-0.172,0.029-0.287,0.057-0.429
		c0.029-0.2,0.057-0.4,0.029-0.543c-0.057-0.257-0.285-0.485-0.628-0.657c-0.371-0.2-0.858-0.286-1.314-0.229
		c-0.057,0-0.057,0.029-0.057,0.029c0.028,0.286,0.342,0.771,0.599,1.2c0.172,0.257,0.315,0.486,0.401,0.685
		c0.256,0.601-0.03,0.886-0.601,1.115c-0.085,0.057-0.199,0.085-0.285,0.143c-0.4,0.143-0.942,0.371-1.4,0.8
		c-0.942,0.886-1.513,0.857-2.398,0.857c-0.314-0.029-0.685-0.029-1.114,0.029c-0.571,0.028-0.857,0.514-1.113,0.971
		c-0.401,0.628-0.744,1.229-1.686,1.143c-0.628-0.086-1.342,0.657-2.142,1.514c-0.513,0.6-1.113,1.2-1.798,1.714
		c-1.342,1-1.685,0.886-2.17,0.714c-0.144-0.056-0.343-0.114-0.629-0.085c-0.628,0.029-1.571,1-2.513,1.914
		c-0.4,0.429-0.771,0.828-1.143,1.143c-0.77,0.685-1.199,0.543-1.57,0.143c-0.114-0.143-0.2-0.257-0.286-0.4
		c-0.171-0.286-0.371-0.629-0.799-0.686c0,0,0.028,0.057,0.028,0.086c0.029,0.2,0.143,0.428,0.257,0.714
		c0.572,1.057,1.714,2.457,2.685,2.828c2.084,0.772,1.999,1.201,1.456,3.801l-0.057,0.229c-0.228,1.142-0.143,1.171-0.057,1.199
		c0.314,0.114,0.657,0.229,0.742,1.029c0.086,0.686,0.372,1.742,1.086,2.514c0.485,0.543,1.141,0.943,2.084,1.029
		c1.8,0.171,1.971,0.628,2.171,1.199c0.086,0.201,0.171,0.429,0.571,0.658c1.027,0.6,1.057,0.657,1.399,1.457
		c0.115,0.314,0.286,0.743,0.657,1.458c0.543,1.056,0.799,1,1.256,0.885c0.429-0.115,0.971-0.257,1.771-0.057
		c1.113,0.257,2.199,1.142,2.799,1.942C78.391,90.891,78.534,91.089,78.62,91.29"/>
	<path clip-path="url(#SVGID_2_)" fill-rule="evenodd" clip-rule="evenodd" fill="#D6DDE9" d="M104.093,118.49
		c0.086-0.485,0.314-1.629,1.057-1.943c0.372-0.143,0.743-0.143,1.114-0.114c0.285,0.029,0.571,0.029,0.599-0.143
		c0.086-0.2,0.143-0.371,0.201-0.485c0.085-0.2,0.114-0.286-0.286-0.943c-0.057-0.057-0.085-0.114-0.115-0.171
		c-0.342-0.571-0.485-1.086-0.485-1.515c0-0.515,0.172-0.915,0.515-1.114h0.028v-0.028c0.086-0.028-0.086,0-0.114-0.086
		c-0.086-0.2-0.229-0.457-0.286-0.8c-0.115-0.715,0.314-0.829,0.799-1c0.201-0.058,0.401-0.114,0.486-0.314
		c0.086-0.286,0.2-0.515,0.342-0.743c0.229-0.399,0.429-0.8-0.028-1.114c-0.371-0.257-0.771-0.314-1.057-0.343
		c-0.713-0.086-1.17-0.143-1.113-1.229c0.057-0.628,0.113-1.144,0.314-1.514c0.286-0.458,0.714-0.63,1.399-0.4
		c0.457,0.143,0.828,0.485,1.143,0.8c0.313,0.286,0.571,0.543,0.742,0.457c0.228-0.086,0.457-0.285,0.685-0.457
		c0.514-0.399,1.029-0.771,1.771-0.743h0.028c-0.086-0.171-0.199-0.399-0.285-0.628c-0.515-1.143,0.514-3.2,0.999-4.058
		c-0.171-0.085-0.371-0.2-0.599-0.314c-2.256-1.143-2.285-1.371-2.513-2.314c-0.029-0.143-0.058-0.286-0.114-0.514
		c-0.143-0.401-0.287-0.8-0.457-1.115c-0.343-0.8-0.6-1.4-0.171-1.971c0.285-0.372,0.256-1.886,0.199-2.628
		c-0.114-0.03-0.257-0.03-0.371-0.03c-0.686,0-1.228-0.285-1.913-0.685c-0.371-0.2-0.8-0.457-1.285-0.686
		c-0.743-0.314-1.143-0.114-1.543,0.086c-0.314,0.143-0.657,0.315-1.084,0.343c-0.144,0-0.315,0.028-0.487,0.057
		c-1.027,0.114-2.312,0.257-3.969-0.8c-1.399-0.886-1.742-0.886-2.913-0.886h-1c-1.113-0.028-2.055-0.171-2.827-0.285
		c-0.684-0.114-1.256-0.229-1.684-0.172c-0.086,0.028-0.086,0.114-0.057,0.229c0,0.142,0.028,0.286,0.057,0.457
		c0.086,0.457,0.2,0.971,0.114,1.543c-0.143,0.943-0.6,1.028-1.113,0.943c-0.086,0-0.172-0.029-0.229-0.029
		c-0.086-0.029-0.086-0.143-0.143-0.085c-0.085,0.114-0.143,0.313-0.229,0.542c-0.143,0.486-0.342,1.029-0.856,1.458
		c-0.314,0.256-0.542,0.371-0.743,0.485c-0.142,0.057-0.228,0.114-0.286,0.257c-0.257,0.685-1.342,0.771-2.655,0.857
		c-0.343,0.029-0.686,0.057-1,0.086c-0.228,0-0.428,0.029-0.57,0.057c-0.487,0.057-0.743,0.086-1.029-0.028
		c-0.314-0.172-0.428-0.429-0.713-1.058l-0.086-0.171c-0.315-0.714-1.085-1.114-1.6-1.286c0,0.029-0.028,0.057-0.057,0.086
		c-0.114,0.2-0.286,0.314-0.513,0.371c-0.286,0.058-0.201,0.6-0.144,1.172c0.058,0.543,0.114,1.086-0.085,1.514
		c-0.4,0.857-1.028,0.829-1.742,0.514c-0.286-0.142-0.6-0.343-0.914-0.543c-0.114-0.057-0.257,0.144-0.371,0.429
		c-0.229,0.514-0.401,1.286-0.515,1.914c-0.171,1.058-0.742,1.258-1.57,1.572c-0.428,0.171-0.999,0.371-1.599,0.828
		c-0.942,0.715-1.314,0.772-1.657,0.858c-0.199,0.028-0.399,0.056-0.828,0.428c-0.028,0-0.028,0.029-0.057,0.029
		c-0.314,0.314-0.343,0.828-0.2,1.371c0.143,0.629,0.543,1.314,0.942,1.829h0.03c0.056,0.114,0.142,0.2,0.227,0.285l0.086,0.114
		c0.543,0.543,0.8,0.829,0.828,1.258c0.058,0.371-0.086,0.714-0.371,1.371l-0.142,0.371c-0.2,0.429-0.315,0.543-0.287,0.543
		c0.058,0.028,0.172,0.028,0.315,0.028c0.314,0.029,0.685,0.058,1.085,0.229c1.257,0.542,0.886,1.457,0.515,2.399
		c-0.086,0.172-0.144,0.343-0.201,0.457v0.028c-0.342,1.058-0.714,0.915-1.627,0.6c-0.257-0.085-0.543-0.171-0.915-0.256
		c-1.085-0.229-1.113-0.829-1.141-1.515c0-0.286-0.03-0.629-0.258-0.857c-0.285-0.285-0.685-0.114-1.056,0.058
		c-0.457,0.171-0.885,0.371-1.371,0.171c-0.371-0.143-0.629-0.229-1.028-0.314c-0.4-0.057-0.914-0.143-1.742-0.257
		c-0.428-0.057-0.542,0.058-0.572,0.2v0.485c0.03,0.4,0.058,0.743-0.199,1c-0.314,0.314-0.857,0.258-1.514,0.172
		c-0.627-0.086-1.427-0.2-2.141,0.028c-0.515,0.143-1.028,0.515-1.571,0.886c-0.943,0.657-1.942,1.371-3.17,1.314
		c-0.743-0.028-0.771,0.171-0.771,0.371c-0.057,0.343-0.086,0.686-0.543,0.943c-0.086,0.057-0.2,0.086-0.343,0.114
		c-0.399,0.086-0.884-0.058-1.313-0.314c-0.399-0.229-0.771-0.6-0.971-0.972c-0.086-0.171-0.142-0.314-0.172-0.485
		c-0.056-0.286-0.57-0.4-1.227-0.571c-0.429-0.086-0.914-0.201-1.4-0.4c-0.056-0.028-0.142-0.057-0.2-0.057
		c-0.257-0.029-0.513,0.114-0.77,0.343c-0.286,0.285-0.515,0.686-0.686,1.114c-0.171,0.399-0.285,0.799-0.314,1.199
		c-0.143,1.372-0.486,1.4-1.37,1.458c-0.287,0.028-0.658,0.057-1.143,0.199c-0.828,0.229-1.199-0.028-1.342-0.485
		c-0.086-0.343,0-0.714,0.085-1.114c0.058-0.257,0.114-0.543,0.086-0.571c-0.056-0.143-0.285-0.286-0.571-0.486
		c-0.514-0.371-1.143-0.828-1.599-1.628c-0.286-0.486-0.629-0.486-1.028-0.457c-0.343,0.028-0.686,0.057-1.057-0.086
		c-0.486,0.714-1.199,1.571-1.799,1.828c-0.028,0-0.028,0.086,0,0.144c0.057,0.143,0.171,0.314,0.257,0.457
		c0.228,0.399,0.457,0.828,0.457,1.257c0,0.629-0.343,0.857-0.742,1.172c-0.286,0.199-0.658,0.457-0.771,0.971
		c-0.201,0.886-0.086,0.972,0.542,1.458l0.286,0.229c0.456,0.371,0.913,0.628,1.313,0.856c0.543,0.314,1.029,0.601,1.4,1
		c0.256,0.314,0.599,0.601,1.085,0.886c0.485,0.258,1.142,0.514,2.027,0.743c0.371,0.086,0.485,0.086,0.515,0.057
		c0.028-0.114,0-0.371-0.058-0.628c-0.057-0.429-0.114-0.886,0-1.343c0.058-0.144,0.114-0.286,0.2-0.4
		c0.229-0.257,0.514-0.343,0.857-0.285c0.256,0.028,0.514,0.171,0.799,0.343c0.514,0.343,1.085,0.942,1.542,1.485
		c0.058,0.086,0.086,0.143,0.143,0.229c0.2-0.086,0.429-0.086,0.714-0.057c0.228,0,0.457,0.028,0.685,0.028
		c0.943,0.057,1.572,0.086,2.228,0.972c0.257,0.343,0.543,0.514,0.8,0.6c0.257,0.057,0.513,0,0.77-0.172
		c0.03-0.028,0.058-0.313,0.058-0.686c0.057-1.2,0.114-2.914,2.827-2.914c2.142,0,2.941-0.086,3.513-0.172
		c0.342-0.028,0.599-0.057,0.942-0.057c0.485,0,1.028-0.028,1.57-0.086c0.486-0.086,1-0.229,1.4-0.457
		c0.228-0.143,0.429-0.429,0.599-0.657c0.172-0.257,0.343-0.485,0.572-0.6c0.428-0.2,0.828,0,1.257,0.914
		c0.485,1.057,0.228,1.686,0.028,2.172c-0.057,0.171-0.114,0.313,0,0.399c0.228,0.229,0.457,0.343,0.685,0.457
		c0.542,0.286,1.114,0.601,1.799,1.686c0.429,0.629,2.028,1.086,3.77,1.4c1.856,0.314,3.827,0.485,4.94,0.571
		c1.171,0.058,1.943,0.2,2.685,0.314c0.685,0.114,1.313,0.229,2.199,0.286c0.742,0.028,1.799,0.257,2.942,0.485
		c1.712,0.343,3.597,0.714,4.625,0.571c0.514-0.086,0.886-0.086,1.2-0.114c0.685-0.028,0.97-0.028,1.913-0.972
		c0.372-0.371,0.657-0.686,0.914-1c0.942-1.057,1.599-1.856,3.284-1.771c0.914,0.029,1.428-0.199,1.885-0.399
		c0.485-0.2,0.914-0.4,1.599-0.286l0.057,0.028c1,0.144,1.514,0.229,1.942-0.313c0.343-0.429,0.628-0.715,0.943-0.858
		c0.342-0.171,0.685-0.199,1.171-0.142c0.342,0.057,0.628,0.229,0.856,0.343l0.028,0.028c-0.028,0-0.028-0.028-0.028-0.028
		c0.028-0.144,0.028-0.286,0.057-0.429c0.029-0.257,0.029-0.429,0.086-0.601c0.057-0.199,0.142-0.371,0.371-0.8l0.057-0.143
		C102.779,119.004,103.408,118.632,104.093,118.49"/>
	<path clip-path="url(#SVGID_2_)" fill-rule="evenodd" clip-rule="evenodd" fill="#D6DDE9" d="M148.1,123.804
		c0.114-0.086,0.258-0.172,0.429-0.229c0.314-0.086,0.657-0.058,1.285,0.028c0.942,0.172,1.714,0.086,2.284,0l0.2-0.028
		c0.172-0.029,0.314,0,0.485,0h0.229c0.229,0,0.457-0.058,0.457-0.515c0-0.543,0.172-1.027,0.401-1.429
		c0.17-0.314,0.398-0.543,0.627-0.742c0.257-0.2,0.542-0.314,0.827-0.314c0.201,0,0.372,0.057,0.515,0.143
		c0.257,0.143,0.429,0.343,0.6,0.515c0.086,0.085,0.172,0.171,0.258,0.229c0.028,0.028,0.085-0.029,0.229-0.229
		c0.342-0.486,0.456-0.743,0.542-0.943c0.114-0.229,0.2-0.457,0.485-0.857c0.229-0.343,0.229-0.6,0.172-1.057
		c-0.029-0.342-0.058-0.743-0.029-1.342c0.029-0.315,0.029-0.516,0.029-0.716c0-0.914,0-0.971,0.885-1.971
		c0.286-0.313,0.543-0.543,0.771-0.743c0.457-0.371,0.742-0.629,0.656-1.485c-0.143-1.2,0.485-3.372,0.972-5.029
		c0.143-0.514,0.285-0.971,0.371-1.343c0.143-0.514,0.17-1,0.199-1.457c0.058-0.886,0.086-1.657,0.8-2.371
		c0.314-0.343,0.371-1,0.4-1.6c0.057-0.828,0.114-1.6,0.742-2.085c0.371-0.258,0.8-0.487,1.199-0.687
		c0.629-0.371,1.229-0.685,1.285-0.886c0.058-0.457,0.429-1.085,1.057-1.656c0.457-0.429,1.085-0.829,1.885-1.143
		c1.057-0.4,1.114-2,1.114-2.6c-0.429-0.371-0.686-0.771-0.887-1.086c-0.342-0.515-0.57-0.886-1.341-0.6
		c-0.886,0.315-1.571,0.543-2.113,0.543c-0.686,0-1.143-0.286-1.457-1c-0.17-0.428-0.6-0.543-1.027-0.686
		c-0.143-0.057-0.258-0.085-0.372-0.143c-1.513-0.543-1.741-1.028-1.599-1.942c-0.343,0.143-0.8,0.371-1.229,0.742
		c-0.569,0.486-1.313,0.886-2.028,1.086c-0.685,0.172-1.369,0.172-1.855-0.142c-0.257-0.172-0.514-0.429-0.771-0.686
		c-0.429-0.457-0.914-0.972-1.428-0.801c-0.515,0.144-0.828,0.372-1.114,0.601c-0.343,0.257-0.628,0.485-1.113,0.629
		c-0.571,0.171-1.028,0.085-1.6-0.058c-0.457-0.114-0.942-0.228-1.628-0.228c-0.399,0-0.8,0-1.171-0.029
		c-0.885-0.057-1.599-0.086-2.342,0.285c-0.456,0.258-0.714,0.515-0.828,0.886c-0.171,0.401-0.229,1.028-0.285,1.914
		c-0.028,0.2-0.028,0.372-0.057,0.487c-0.029,0.685-0.059,1.056-0.286,1.428c-0.229,0.429-0.628,0.742-1.485,1.4
		c-1.17,0.915-1.685,0.971-2.741,1.057c-0.571,0.057-1.313,0.143-2.456,0.4c-1.542,0.342-2.97,0.686-4.112,1.029
		c-1.141,0.343-1.999,0.686-2.484,1.057c-0.428,0.372-0.656,0.771-0.743,1.171c-0.113,0.429-0.085,0.857-0.085,1.229
		c0.028,0.457-0.028,1.114-0.542,1.742c-0.486,0.601-1.37,1.172-2.999,1.515c-1.514,0.314-2.599,0.543-3.599,0.629
		c-0.999,0.086-1.885,0.057-3.084-0.086l-0.343-0.058c-2.113-0.257-2.655-0.343-4.14-1.685h-0.029
		c-0.4-0.371-0.657-0.628-0.856-0.828c-0.286-0.287-0.429-0.458-0.943-0.772c-0.428,0.772-1.342,2.485-0.971,3.314
		c0.114,0.285,0.2,0.458,0.286,0.6c0.142,0.343,0.257,0.543,0.228,0.771c-0.057,0.485-0.342,0.485-0.971,0.457h-0.085
		c-0.457-0.028-0.828,0.286-1.229,0.571c-0.257,0.2-0.513,0.4-0.799,0.543c-0.714,0.372-1.2-0.086-1.714-0.6
		c-0.286-0.258-0.571-0.515-0.856-0.629c-0.2-0.057-0.314-0.057-0.371,0.028c-0.114,0.229-0.172,0.629-0.2,1.144
		c0,0.285,0.142,0.285,0.343,0.314c0.399,0.057,0.884,0.114,1.456,0.485c1.114,0.772,0.714,1.485,0.286,2.257
		c-0.114,0.2-0.229,0.4-0.286,0.571c-0.201,0.629-0.658,0.771-1.057,0.886c-0.086,0.029-0.171,0.059-0.171,0.059
		c0.028,0.199,0.114,0.398,0.199,0.542c0.229,0.514,0.401,0.856-0.228,1.2c-0.085,0.057-0.115,0.199-0.115,0.371
		c0,0.285,0.115,0.686,0.373,1.114c0.028,0.057,0.056,0.114,0.085,0.143c0.657,1.058,0.571,1.229,0.342,1.743
		c-0.028,0.086-0.086,0.229-0.142,0.399c-0.229,0.801-0.828,0.771-1.486,0.743c-0.256-0.028-0.542-0.028-0.713,0.058
		c-0.314,0.114-0.457,0.687-0.514,1.057c0.086,0,0.2,0.028,0.285,0.028c0.286,0.029,0.543,0.114,0.772,0.229
		c0.399,0.2,0.685,0.572,0.742,1.058c0.086,0.629,0.286,1.229,0.543,1.743c0.257,0.543,0.571,1.028,0.828,1.399
		c0.257,0.372,0.714,0.857,1.285,1.343c0.514,0.429,1.113,0.857,1.742,1.229c0.428,0.258,0.913,0.486,1.399,0.715
		c1.142,0.514,2.285,1.057,2.77,1.972c0.343,0.6,0.686,0.771,1.257,1.057c0.371,0.2,0.828,0.429,1.399,0.829
		c0.514,0.343,1.028,0.686,1.456,1.029c0.857,0.599,1.571,1.113,2.057,1.256c0.257,0.058,0.628,0.058,1.085,0.058
		c0.771,0,1.771-0.029,3.056,0.313l0.313,0.086c1.686,0.429,2.257,0.571,3.456-0.114c0.628-0.371,1.114-0.514,1.542-0.628
		c0.514-0.144,0.942-0.258,1.428-0.857c0.086-0.086,0.2-0.257,0.314-0.371c0.771-0.972,0.971-1.229,2.627-1.657
		c0.886-0.229,1.113-0.458,1.371-0.715c0.257-0.285,0.542-0.571,1.286-0.942c0.798-0.4,1.141-0.258,1.427-0.144
		c0.114,0.058,0.171,0.086,0.942-0.742c0.6-0.657,0.686-1.144,0.742-1.457c0.172-0.829,0.229-1.114,2.142-1.029
		c0.913,0.058,1.686-0.114,2.342-0.285C146.558,123.546,147.329,123.375,148.1,123.804"/>
	<path clip-path="url(#SVGID_2_)" fill-rule="evenodd" clip-rule="evenodd" fill="#D6DDE9" d="M245.366,140.546
		c-0.257-0.485-0.285-0.828-0.085-1.571c0.428-1.429-2.028-4.429-1.742-5.771c0.313-1.371,0.999-1.771,1.199-3.257
		c0.229-1.485,1.399-4.171,0.885-3.714c-0.542,0.456-1.199,1.171-1.599,0.199c-0.371-0.971,0.343-1.313,0.572-1.942
		c0.228-0.6-1.171-1.058-1.058-2c0.114-0.943,2.084-2.343,2.198-1.086s-0.542,1.4,0.114,1.629c0.629,0.229,1.201,0.714,0.715,1.057
		s-1.399,1.543-0.457,0.972c0.943-0.571,1.142-1.743,2.084-2.171c0.943-0.458,1.771-0.229,2.456-0.801s1.114-1.343,0.943-2.343
		c-0.2-1.028-1.6-1.714-1.143-3.399c0.057-0.144,0.085-0.314,0.144-0.457c-0.801-0.771-1.801-1.657-2.314-1.771
		c-0.142-0.029-0.314-0.058-0.457-0.086c-0.77-0.172-1.514-0.344-2.256,0.628c-0.343,0.429-0.543,0.743-0.714,1
		c-0.457,0.629-0.657,0.943-1.399,1.314c-0.543,0.258-0.999,0.2-1.398,0.144c-0.229-0.029-0.43-0.058-0.542,0.114
		c-0.086,0.114-0.173,0.285-0.259,0.456c-0.485,1-1.142,2.286-2.911,1.515c-0.173-0.057-0.487-0.199-0.772-0.343
		c-1.514-0.628-2.827-1.2-3.427-2c-0.143-0.2-0.399-0.285-0.628-0.399c-0.686-0.258-1.314-0.486-1.256-1.915
		c0.027-0.942,0.456-1.114,0.741-1.257c0.058-0.028-0.086,0.058-1.113-1.399c-1.656-2.344-1.627-3.372-1.6-4.915
		c0-0.571,0.028-1.199-0.057-2.028c-0.114-0.942-0.144-1.686-0.144-2.286c-0.028-1.199-0.057-1.914-0.714-3.142
		c-0.6-1.115-1.685-2.8-2.855-4.143c-0.828-1-1.685-1.8-2.37-2.086c-0.543-0.228-1-0.343-1.427-0.457
		c-1.085-0.257-1.914-0.457-2.8-1.914l-0.229-0.429c-1.113-1.857-2.713-4.543-4.597-5.543c-1.144-0.629-1.542-1.571-1.942-2.514
		c-0.343-0.857-0.685-1.657-1.685-2c-1.085-0.343-1.8-0.486-2.485-0.428c-0.686,0.057-1.342,0.285-2.284,0.656
		c-0.914,0.344-1.457,0.601-1.714,0.915c-0.229,0.257-0.285,0.6-0.285,1.171c0,0.315,0.085,0.571,0.171,0.772
		c0.286,0.914,0.43,1.342-2.056,2.057c-1.399,0.4-2.028,0.8-2.628,1.171c-0.656,0.429-1.285,0.829-2.685,1.172
		c-2.398,0.628-2.513,0.828-3.227,2.2l-0.056,0.085c-0.229,0.486-0.344,0.915-0.401,1.258c-0.086,0.314-0.114,0.571-0.285,0.742
		c-0.343,0.429-0.771,0.315-1.771-0.514c-0.713-0.571-1.085-1-1.371-1.314c-0.371-0.4-0.514-0.6-1.143-0.686
		c-0.6-0.114-1.057-0.4-1.484-0.628c-0.371-0.229-0.686-0.401-0.857-0.201c-0.428,0.457-1.085,0.915-2.084,1.201
		c-0.8,0.228-1.828,0.371-3.142,0.371c-1.514,0-1.971-0.143-2.428-0.314c-0.399-0.114-0.799-0.258-2.056-0.286
		c-0.429,0-0.8-0.028-1.143-0.028c-1.712-0.086-2.37-0.115-3.056,0.571c-0.284,0.314-0.457,0.629-0.571,0.857
		c-0.084,0.171-0.143,0.314-0.229,0.428c-0.257,0.286-0.514,0.401-0.913,0.2c-0.058,0.944-0.4,2.343-1.656,2.829
		c-0.657,0.229-1.2,0.6-1.6,0.943c-0.457,0.457-0.742,0.886-0.8,1.172c-0.086,0.628-0.885,1.056-1.713,1.485
		c-0.372,0.229-0.771,0.429-1.086,0.657c-0.313,0.229-0.342,0.8-0.399,1.429c-0.028,0.772-0.086,1.571-0.657,2.143
		c-0.456,0.486-0.514,1.114-0.542,1.829c-0.028,0.485-0.058,1.028-0.229,1.6c-0.086,0.4-0.229,0.857-0.371,1.371
		c-0.457,1.601-1.057,3.687-0.942,4.715c0.143,1.314-0.286,1.656-0.942,2.229c-0.2,0.2-0.457,0.399-0.686,0.657
		c-0.686,0.742-0.686,0.8-0.686,1.429c0,0.199,0,0.429-0.028,0.714c-0.028,0.543,0.028,0.943,0.058,1.257
		c0.027,0.629,0.086,1-0.344,1.629c-0.229,0.314-0.313,0.485-0.399,0.686c-0.143,0.258-0.256,0.543-0.628,1.086
		c-0.542,0.8-1,0.771-1.429,0.457c-0.143-0.114-0.257-0.229-0.399-0.343c-0.114-0.144-0.256-0.286-0.399-0.371h-0.086
		c-0.086,0-0.2,0.057-0.313,0.143c-0.144,0.085-0.286,0.257-0.4,0.457c-0.172,0.286-0.257,0.628-0.257,1
		c0,1.229-0.657,1.371-1.342,1.371h-0.258h-0.343l-0.2,0.029c-0.628,0.085-1.484,0.199-2.541,0
		c-0.485-0.086-0.741-0.114-0.886-0.058h-0.028c0.087,0.114,0.173,0.2,0.257,0.343c0.429,0.601,0.771,1.144,1.057,1.601
		c0.543,0.856,0.828,1.313,1.171,1.313c0.144,0,0.314-0.028,0.485-0.057c0.828-0.086,1.828-0.2,3.085,1.085
		c0.856,0.915,0.6,1.172,0.2,1.515c-0.144,0.144-0.344,0.343,0.656,1.886c1.028,1.543,1.656,2.372,2.343,2.857
		c0.627,0.457,1.398,0.629,2.74,0.8c1.429,0.2,2.513,0.4,3.312,0.657c0.914,0.314,1.457,0.743,1.628,1.372
		c0.2,0.571,0.229,1.114,0.143,1.6c-0.113,0.515-0.343,0.942-0.741,1.229c-0.144,0.114-0.315,0.2-0.486,0.286
		c-0.172,0.114-0.371,0.199-0.457,0.313c-0.057,0.058,0,0.2,0.371,0.543c1.171,1.029,1.771,1.286,3.027,1.8v0.029l0.172,0.057
		c0.484,0.2,1.17,0.172,1.855,0.114c1.199-0.086,2.342-0.171,2.97,0.914c0.371,0.657,0.743,1.2,1.057,1.4
		c0.058,0.028,0.114-0.057,0.201-0.314c0.056-0.2,0.113-0.429,0.17-0.686c0.373-1.6,0.915-3.771,2.6-3.343
		c0.342,0.086,0.685,0.114,0.999,0.143c0.4,0.058,0.742,0.086,1,0.2c0.685,0.286,0.913,0.829,0.342,2.2
		c-0.171,0.457-0.342,0.8-0.484,1.086c-0.429,1-0.542,1.229,0.057,1.771c0.542,0.457,1.827,0.914,2.998,1.313
		c0.943,0.314,1.8,0.629,2.199,0.915c0.657,0.485,0.372,1.143,0.057,1.914c-0.257,0.571-0.542,1.229-0.199,1.657
		c0.257,0.343,0.371,0.6,0.457,0.828c0.171,0.372,0.199,0.457,2.77,0c1.885-0.343,3.342-0.6,4.827-0.714
		c1.484-0.143,2.94-0.172,4.854-0.058c1.857,0.114,3.027,0.144,3.799,0.058c0.714-0.086,1.142-0.314,1.57-0.686
		c0.514-0.515,0.886-0.829,1.571-1.058c0.656-0.2,1.57-0.285,3.169-0.285h0.915c2.312,0.028,3.169,0.028,4.998-0.515
		c1.198-0.343,1.655-1,2.227-1.857c0.371-0.543,0.799-1.143,1.456-1.8c0.943-0.942,2.656-2.371,4.398-3.686
		c1.513-1.143,3.055-2.172,4.111-2.686c1.028-0.486,2.113-0.915,2.999-1.2c1.085-0.343,1.941-0.515,2.256-0.4
		c0.057,0.029,0.114,0.058,0.2,0.114c0.628,0.258,2.113,0.915,3.084,0.857c0.457-0.028,0.656-0.2,0.828-0.343
		c0.343-0.286,0.6-0.485,1.257-0.343c0.285,0.086,0.515,0.171,0.742,0.229c0.429,0.143,0.742,0.229,1.113,0.171l0.172-0.057
		c0.657-0.172,0.885-0.2,2.114,0.629c0.484,0.343,1.142,0.57,1.855,0.714c0.885,0.172,1.827,0.2,2.569,0.143
		C244.225,140.918,244.795,140.747,245.366,140.546"/>
	<path clip-path="url(#SVGID_2_)" fill-rule="evenodd" clip-rule="evenodd" fill="#D6DDE9" d="M133.936,181.546
		c0.571,0.286,1.171,0.543,1.771,0.857c0.827-0.399,2.084-1.028,2.084-1.343c0-0.285-0.114-0.714-0.286-1.229
		c-0.199-0.629-0.514-1.343-0.798-1.886c-0.287-0.571-0.543-1.143-0.687-1.629c-0.2-0.629-0.2-1.171,0.171-1.514
		c0.314-0.314,0.6-0.258,0.942-0.2c0.229,0.028,0.485,0.085,0.657-0.8c0.143-0.686,0.057-1.258,0-1.771
		c-0.114-0.972-0.229-1.686,0.856-2.486c1.058-0.771,1.685-0.457,2.228-0.171c0.229,0.114,0.457,0.229,0.628,0.114
		c0.2-0.086,0.4-0.143,0.571-0.229c0.229-0.086,0.457-0.172,0.571-0.257c0.086-0.086,0-0.315-0.514-0.886
		c-0.429-0.486-0.914-0.915-1.313-1.258c-0.57-0.485-0.972-0.856-0.972-1.229c0-0.429,0.314-0.628,1.086-0.628
		c0.828,0,1.313,0.085,1.713,0.143c0.371,0.057,0.628,0.114,0.971,0.028c0.259-0.086,0.457-0.314,0.657-0.571
		c0.399-0.457,0.771-0.915,1.542-0.972c0.399-0.028,1-0.086,1.399-0.285c0.115-0.058,0.171-0.086,0.201-0.144
		c0.027-0.028,0-0.085-0.03-0.143c-0.143-0.229-0.427-0.515-1.027-0.914c-0.399-0.257-0.6-0.4-0.771-0.515
		c-1.542-1.028-2.685-1.771-2.741-2.399c-0.028-0.515,0.399-0.829,1.456-0.886c0.572-0.029,1.085-0.029,1.514-0.029
		c0.601,0,1.058,0,1.171-0.057c0,0-0.143-0.2-0.57-0.743c-0.572-0.742-1.542-1.028-2.485-1.314c-1.428-0.428-2.799-0.828-3.17-2.543
		c-0.457-1.972,0.058-3.714,0.485-5.199c0.172-0.601,0.343-1.144,0.4-1.629c0.057-0.4,0.085-0.8,0.057-1.2
		c-0.028-0.429-0.114-0.771-0.257-1.057c-0.114-0.2-0.257-0.314-0.429-0.343h-0.114h-0.229c-0.257,0-0.485-0.029-0.714-0.086
		c-0.343,0.714-1.199,2.028-2.855,2.086c-1.6,0.057-1.94-0.172-1.971-0.972c-0.028-0.172,0-0.371,0.03-0.629
		c0.027-0.2,0.056-0.399,0.056-0.657c0.029-0.485-0.543-0.6-1.143-0.628h-0.656c-0.429,0-0.771,0-0.972-0.114
		c-0.057,0-0.37,0.085-0.771,0.199c-0.828,0.229-1.885,0.515-2.713,0.114c-0.514-0.257-0.885-0.371-1.143-0.399
		c-0.199-0.028-0.371,0-0.542,0.143c-0.058,0.028-0.114,0.086-0.172,0.114c-0.714,0.543-2.056,1.543-2.942,0.771
		c-0.2-0.2-0.884-0.257-1.656-0.229c-0.942,0.058-1.942,0.257-2.456,0.515c-0.656,0.314-1.142,0.343-1.57,0.228
		c-0.429-0.143-0.743-0.428-1.057-0.799c-0.2-0.229-0.599-0.429-1.056-0.572c-0.515-0.199-1.085-0.285-1.372-0.257
		c-0.114,0-0.285,0.172-0.485,0.343c-0.543,0.486-1.142,1.058-2.227,0.601c-0.686-0.286-1.143-0.058-1.571,0.199
		c-0.286,0.144-0.543,0.286-0.885,0.343c-0.143,0.058-0.2,0.372-0.257,0.715c-0.143,0.714-0.285,1.515-1.228,1.8
		c-1.371,0.4-2.227-0.8-2.971-1.857c-0.142-0.171-0.256-0.371-0.371-0.485l-0.028-0.058c-0.229-0.257-0.485-0.285-0.742-0.257
		c-0.315,0.086-0.629,0.285-0.858,0.457c-0.056,0.058-0.114,0.086-0.17,0.144c-0.172,0.143-0.315,0.542-0.458,1.085
		c-0.142,0.657-0.228,1.486-0.228,2.2c0,0.457-0.057,0.743-0.114,0.972c-0.115,0.371-0.143,0.485,1.056,1.771
		c1,1.086,1.743,1.343,2.314,1.543c0.571,0.2,0.999,0.343,1.37,0.942c0.343,0.543,0.6,1,0.828,1.601
		c0.229,0.57,0.429,1.343,0.743,2.514c0.4,1.601,1.142,2.429,1.742,3.057c0.257,0.286,0.486,0.515,0.657,0.801
		c0.256,0.429,0.771,0.686,1.457,1.028c0.513,0.258,1.113,0.571,1.827,1.028c0.8,0.543,1.885,1.543,2.941,2.515
		c1.199,1.114,2.342,2.172,2.999,2.485c0.314,0.143,0.571,0.258,0.828,0.344c0.857,0.371,1.314,0.542,1.627,1.714
		c0.172,0.6,0.457,1.229,0.858,1.8c0.371,0.571,0.828,1.058,1.285,1.372c0.144,0.085,0.343,0.199,0.515,0.343
		c0.913,0.57,1.741,1.114,1.827,2.199c0.028,0.343,0.258,0.429,0.628,0.572c0.371,0.114,0.856,0.285,1.399,0.656
		c0.371,0.258,0.742,0.429,1.113,0.601c0.886,0.457,1.771,0.914,2.856,2.285C133.621,180.89,133.85,181.261,133.936,181.546"/>
	<path clip-path="url(#SVGID_2_)" fill-rule="evenodd" clip-rule="evenodd" fill="#D6DDE9" d="M77.734,142.804v0.028
		c0.086,1.743,0.914,2.8,1.2,4.629c0.314,1.8,1.97,1.8,2.113,2.771c0.171,1,0,2.571,1.285,2.143c1.285-0.457,1.713-2.4,2.171-3
		c0.457-0.6,0.97-0.686,1.085-1.629c0.114-0.942-0.171-1.571,0.2-2.028c0.371-0.457-0.943-1.857,0.999-1.571
		c1.97,0.314,2.056-0.515,2.199,0.514c0.143,1-0.828,2.229-0.8,2.829c0.058,0.6,0.172,1.286,0.943,1.343
		c0.799,0.086,1.228-0.429,1.457,0.172c0.228,0.6,1.341,1.343,1.398,0.457c0.029-0.915-0.399-1.372-0.828-2.086
		c-0.456-0.715-0.742-2,0.029-1.429c0.742,0.543,2.142,2.143,2.427,2.743c0.258,0.6,0,3.344-0.114,4.086
		c-0.115,0.771,0.771,1.285,1.228,1.885c0.457,0.601,0.542,1.486-0.228,0.943c-0.743-0.515-1.913-2.8-2.028-1.914
		c-0.114,0.856,1.885,2.856,2.37,3.257c0.486,0.371,1.514,1.886,2.571,1.914c1.056,0.029,2.342-0.2,1.884,0.314
		c-0.457,0.485-1.17,0.515-1.627,0.543c-0.429,0.058-1.714-1-0.743,0.8c0.971,1.829,3.398,3.601,4.883,4.886
		c1.456,1.286,3.227,1.8,3.684,1.886s0.942,1.314,1.028,2.028c0.086,0.743,0.543,1.114,1.171,1.258
		c0.657,0.143,2.599-0.086,3.513-0.571c0.914-0.486,1.598-0.601,2.684,0.199c1.085,0.801,1.485,0.286,2.342,0.801
		c0.857,0.485,2.198,0.742,3.284,1.656c1.085,0.915,1.713,1.458,1.428,1.543c-0.258,0.086-0.4,0.144-1.686,0.372
		c-1.285,0.229-1.999,0.343-2.484,0.314c-0.514-0.029-1.113-0.572-1.514-0.771c-0.427-0.172-0.228-0.629,0.858-0.857
		c1.085-0.228,2.227-0.943,0.942-1.172c-1.285-0.229-2.57-0.742-3.713-0.429c-1.113,0.344-2.512,1-1.056,1.4
		c1.485,0.429,2.799,0.172,2.171,0.657c-0.658,0.485-2.286,0.257-1.971,1.028c0.313,0.743,0.714,0.457,2.027,0.715
		c1.342,0.257,1.486,0.143,2.428,0.285c0.942,0.172,1.941-0.257,2.912-0.343c0.972-0.057,0.686-1.114,2.085-0.485
		c1.399,0.657,4.826,2.086,3.684,2.229c-1.114,0.171-2.169-0.143-3.199-0.371c-1.027-0.229-2.456-0.572-2.827-0.2
		c-0.371,0.399,0.286,0.314-0.942,0.742c-1.256,0.4-2.427,0.258-2.856,0.515c-0.399,0.257-2.171,0.8,0.171,1.028
		c2.342,0.229,2.514,0,3.342-0.229c0.856-0.229,0.856-1.086,1.399-1.086c0.572,0,0.657,0,0.857-0.057
		c0.171-0.028,0.114-0.257,0.314-0.058c0.229,0.172,2.998,0.172,3.827,0.743c0.828,0.571,2.057,1.371,2.37,1.2
		c0.343-0.143-0.229-0.629,0.886-0.286c1.085,0.343,1.742,0.743,2.142,1.114c0.143,0.144,0.714,0.4,1.485,0.743
		c-0.972-1.229-1.771-1.629-2.57-2.028c-0.371-0.2-0.771-0.372-1.171-0.657h-0.028c-0.457-0.314-0.857-0.457-1.171-0.571
		c-0.714-0.229-1.171-0.4-1.229-1.314c-0.057-0.657-0.714-1.086-1.427-1.543c-0.171-0.114-0.343-0.229-0.542-0.371
		c-0.543-0.372-1.086-0.943-1.514-1.601c-0.429-0.628-0.771-1.343-0.972-2.028c-0.199-0.771-0.513-0.886-1.113-1.143
		c-0.257-0.086-0.543-0.2-0.886-0.372c-0.77-0.371-1.969-1.485-3.198-2.628c-1.028-0.943-2.085-1.914-2.855-2.429
		c-0.658-0.429-1.257-0.743-1.743-0.972c-0.799-0.429-1.371-0.714-1.77-1.343c-0.143-0.2-0.343-0.429-0.571-0.686
		c-0.657-0.686-1.485-1.601-1.942-3.4c-0.314-1.143-0.514-1.886-0.714-2.457c-0.2-0.514-0.428-0.914-0.743-1.429
		c-0.228-0.343-0.542-0.457-0.942-0.6c-0.656-0.229-1.514-0.543-2.655-1.771c-1.514-1.629-1.458-1.857-1.257-2.543
		c0.028-0.171,0.086-0.4,0.086-0.771c0-0.771,0.086-1.657,0.256-2.399c0.171-0.687,0.4-1.258,0.743-1.543
		c0.057-0.058,0.114-0.114,0.2-0.172c0.314-0.229,0.742-0.515,1.199-0.6c0.543-0.114,1.085,0,1.571,0.514v0.029l0.057,0.057
		c0.143,0.2,0.257,0.371,0.371,0.543c0.6,0.8,1.257,1.743,2.027,1.515c0.457-0.144,0.543-0.657,0.629-1.114
		c0.115-0.629,0.229-1.229,0.914-1.4c0.228-0.058,0.456-0.172,0.685-0.286c0.629-0.313,1.229-0.656,2.285-0.199
		c0.571,0.229,0.999-0.144,1.342-0.457c0.286-0.286,0.571-0.515,0.942-0.572c0.429-0.057,1.143,0.086,1.771,0.314
		c0.571,0.172,1.114,0.486,1.399,0.829c0.229,0.229,0.429,0.429,0.686,0.514c0.228,0.058,0.513,0.029,0.914-0.171
		c0.628-0.314,1.77-0.543,2.827-0.601c0.971-0.056,1.856,0.058,2.256,0.429c0.371,0.314,1.342-0.399,1.856-0.8
		c0.085-0.058,0.143-0.086,0.198-0.143c0.344-0.229,0.687-0.343,1.115-0.286c0.371,0.028,0.8,0.2,1.427,0.486
		c0.544,0.258,1.429,0,2.114-0.172c0.571-0.172,1.057-0.286,1.371-0.114h0.6h0.714c0.999,0.057,1.999,0.314,1.941,1.515
		c-0.028,0.285-0.028,0.514-0.057,0.714c-0.028,0.229-0.059,0.4-0.028,0.515c0,0.143,0.199,0.171,1.085,0.143
		c1.199-0.028,1.827-1,2.113-1.543l-0.058-0.028c-0.457-0.314-0.771-0.771-0.799-1.372v-0.143c0-0.2-0.029-0.371-0.058-0.514
		c-0.114-0.886-0.143-1.115,1.685-1.429c0.371-0.058,0.828-0.114,1.257-0.172c0.285-0.028,0.543-0.057,0.771-0.057
		c-1.343-0.458-2.171-1.085-3.085-1.743c-0.285-0.2-0.57-0.429-0.913-0.629c-0.743-0.514-1.2-1.028-1.514-1.6
		c-0.314-0.601-0.457-1.229-0.571-2.028c-0.172-1.085-1.486-2.743-2.057-3.4c-0.143,0.143-0.285,0.343-0.485,0.571
		c-0.057,0.086-0.143,0.2-0.313,0.4c-0.657,0.8-1.2,0.971-1.856,1.143c-0.371,0.114-0.8,0.229-1.343,0.543
		c-1.513,0.857-2.17,0.686-4.083,0.2l-0.314-0.086c-1.2-0.314-2.114-0.286-2.827-0.286c-0.543,0-0.943,0-1.342-0.085
		c-0.629-0.172-1.4-0.743-2.314-1.4c-0.428-0.314-0.914-0.657-1.427-1c-0.543-0.371-0.971-0.6-1.343-0.771
		c-0.714-0.371-1.142-0.571-1.599-1.429c-0.343-0.657-1.371-1.143-2.399-1.6c-0.486-0.229-0.999-0.457-1.456-0.743
		c-0.686-0.399-1.314-0.857-1.857-1.314c-0.457-0.371-0.828-0.742-1.113-1.085c-0.457,0.313-1.285,0.828-2.199,1.143
		c-0.285,0.086-0.2,0.314-0.115,0.543c0.201,0.628,0.457,1.285-0.485,1.914c-0.657,0.4-1.313,0.8-1.999,1.171
		c-0.685,0.344-1.456,0.687-2.313,1.058c-0.457,0.172-0.457,0.457-0.286,0.886c0.086,0.171,0.171,0.4,0.315,0.657
		c0.313,0.657,0.742,1.514,0.999,2.629c0.343,1.428,0.028,1.942-0.543,2.085c-0.342,0.086-0.742-0.057-1.142-0.171
		c-0.314-0.114-0.685-0.2-0.799-0.144l-0.029,0.029c-0.457,0.229-1.056,0.571-1.228,0.828c-0.029,0.028,0,0.086,0.086,0.143
		c0.657,0.429,0.599,0.829,0.285,1.286c-0.085,0.114-0.171,0.229-0.257,0.314c-0.199,0.257-0.457,0.571-0.457,0.914
		c0.029,0.371,0.114,0.686,0.172,0.973c0.171,0.713,0.285,1.199-0.371,1.627c-0.372,0.229-0.743,0.373-1.171,0.373
		c-0.429,0-0.886-0.144-1.428-0.43c-0.571-0.314-1.057-0.2-1.628-0.058c-0.257,0.058-0.543,0.114-0.828,0.172h-0.058
		c-0.485,0.086-0.685,0.086-0.884,0.028c-0.144-0.057-0.229-0.143-0.343-0.229c-0.058-0.086-0.2-0.229-0.457-0.399
		c-0.571-0.372-0.657-0.801-0.742-1.229c-0.058-0.286-0.115-0.572-0.543-0.771c-0.143-0.058-0.2,0-0.257,0.085
		c-0.058,0.144-0.086,0.314-0.143,0.515c-0.2,0.657-0.4,1.4-1.114,1.8c-0.285,0.143-0.343,0.2-0.429,0.229
		c-0.341,0.2-0.513,0.314-0.714,0.372c-0.256,0.085-0.457,0.085-0.884,0.114l-0.286,0.028c-0.657,0.028-1.028-0.028-1.371-0.086
		c-0.286-0.057-0.571-0.114-1.028-0.086c-0.257,0.029-0.371,0.114-0.514,0.229c-0.428,0.314-0.942,0.687-3.169,0.543
		C78.792,142.804,78.25,142.804,77.734,142.804"/>
	<path clip-path="url(#SVGID_2_)" fill-rule="evenodd" clip-rule="evenodd" fill="#D6DDE9" d="M80.904,140.576
		c-0.028,0.2-0.142,0.399-0.371,0.6c-0.8,0.601-1.999,0.286-2.513,0.771c0.428,0,0.943,0,1.456,0.058
		c1.913,0.143,2.314-0.144,2.599-0.372c0.257-0.2,0.485-0.343,0.972-0.399c0.57-0.029,0.884,0.029,1.227,0.085
		c0.285,0.058,0.628,0.114,1.171,0.086l0.285-0.028c0.371-0.028,0.543-0.028,0.657-0.058c0.143-0.056,0.286-0.143,0.572-0.313
		l0.427-0.229c0.401-0.229,0.572-0.801,0.715-1.286c0.057-0.228,0.114-0.429,0.199-0.629c0.257-0.571,0.6-0.856,1.372-0.543
		c0.856,0.4,0.942,0.886,1.056,1.4c0.029,0.257,0.086,0.515,0.343,0.686h0.028c0.343,0.229,0.486,0.401,0.6,0.486
		c0.028,0.028-0.028,0.028,0,0.057c0.028,0,0.143-0.028,0.514-0.086h0.029c0.257-0.028,0.514-0.085,0.742-0.143
		c0.742-0.2,1.371-0.343,2.228,0.114c0.428,0.229,0.742,0.343,1.028,0.343c0.257,0,0.485-0.086,0.742-0.257
		c0.114-0.086,0.057-0.343-0.028-0.715c-0.086-0.285-0.143-0.657-0.172-1.085c-0.057-0.687,0.314-1.144,0.629-1.515
		c0.085-0.086,0.143-0.172,0.199-0.229c0.029-0.028,0.029-0.058-0.056-0.113c-0.6-0.401-0.629-0.858-0.315-1.315
		c0.286-0.457,0.971-0.828,1.514-1.142h0.057c0.428-0.259,0.971-0.087,1.456,0.056c0.286,0.114,0.572,0.2,0.686,0.172
		c0.085-0.028,0.085-0.286-0.086-1.058c-0.257-1.028-0.628-1.828-0.942-2.457c-0.143-0.256-0.229-0.485-0.343-0.713
		c-0.371-0.944-0.343-1.543,0.771-2c0.828-0.344,1.542-0.658,2.228-1.029c0.684-0.344,1.313-0.715,1.941-1.144
		c0.371-0.229,0.257-0.571,0.143-0.886c-0.229-0.686-0.457-1.285,0.629-1.657c0.828-0.257,1.542-0.714,1.969-1
		c-0.228-0.371-0.485-0.771-0.713-1.257c-0.286-0.6-0.542-1.286-0.6-2.027c-0.028-0.173-0.143-0.287-0.313-0.373
		c-0.144-0.085-0.287-0.114-0.487-0.143c-0.171-0.027-0.399-0.027-0.599,0c-0.572,0.058-1.114,0.286-1.286,0.601l-0.085,0.143
		c-0.171,0.371-0.257,0.543-0.286,0.657c-0.028,0.086-0.056,0.2-0.056,0.429c-0.029,0.085-0.029,0.199-0.058,0.428
		c-0.085,0.743-0.343,0.943-0.742,0.886c-0.2-0.028-0.371-0.114-0.571-0.229c-0.143-0.085-0.343-0.199-0.542-0.229
		c-0.287-0.057-0.487-0.028-0.629,0.029c-0.2,0.114-0.4,0.313-0.657,0.628c-0.743,0.943-1.428,0.829-2.742,0.63h-0.085
		c-0.428-0.087-0.771,0.056-1.114,0.228c-0.543,0.229-1.143,0.485-2.284,0.457c-1.257-0.057-1.8,0.571-2.599,1.485
		c-0.258,0.314-0.571,0.687-0.914,1.029c-1.199,1.199-1.571,1.199-2.514,1.229c-0.285,0.028-0.627,0.028-1.113,0.086
		c-1.171,0.171-3.113-0.2-4.912-0.572c-0.828-0.171-1.656-0.343-2.284-0.428c-0.114,0.285-0.286,0.656-0.571,1.085
		c-0.343,0.515-0.628,0.743-0.971,1.029c-0.286,0.285-0.657,0.6-1.2,1.257c-0.143,0.2-0.199,0.285-0.171,0.285
		c0.171,0.172,0.771,0.229,1.342,0.286c0.342,0.028,0.685,0.058,0.942,0.114c0.657,0.143,0.829,0.457,0.743,0.914
		c-0.086,0.372-0.429,0.743-0.828,1.172c-0.172,0.2-0.371,0.429-0.543,0.657c-0.114,0.143-0.143,0.2-0.114,0.2
		c0.086,0.057,0.228,0.143,0.371,0.199c0.371,0.172,0.8,0.4,1.171,0.771c0.543,0.543,0.599,0.972,0.657,1.372
		c0.057,0.313,0.086,0.6,0.514,1c0.543,0.514,0.942,0.942,1.228,1.343c0.314,0.457,0.428,0.886,0.343,1.344
		C81.876,140.175,81.419,140.432,80.904,140.576"/>
	<path clip-path="url(#SVGID_2_)" fill-rule="evenodd" clip-rule="evenodd" fill="#D6DDE9" d="M76.393,16.233
		c-1.113-0.172-1.885-0.314-2.314-0.086c-0.599,0.285-2.655-1-1.199-1.457c1.428-0.429,1.885,0,2.999-0.2
		c1.142-0.229,2.57-0.172,1.228-1.286c-1.371-1.143-3.941-1.914-4.997-2.657c-1.057-0.771-0.515-0.543-2.199-0.458
		c-1.657,0.086-2.171,0.373-1.943-0.685c0.229-1.057-0.399-2.028,0.972-2.171c1.37-0.172,1.428,0.742,1.97,0.285
		c0.514-0.457,0.599-1.514-0.229-2.114s0.144-0.086-0.313-1.2c-0.457-1.143-0.686-1.457-1.428-1.285
		c-0.743,0.142-0.086,0-1.143-0.401c-1.056-0.371-2.113-1.2-2.342,0.543c-0.228,1.743,0.4,1.829,0.458,2.657
		c0.085,0.829,0.314,1.572-1.057,0.972c-1.342-0.601-1.656-1.515-2.428-1.058c-0.742,0.457-2.027-1.371-2.855-0.228
		C58.745,6.547,60.4,7.233,58.43,8.061c-1.97,0.829-2.027,1.715-3.255,2.343c-1.2,0.6-2.941-0.315-3.227,0.829
		c-0.315,1.114,1.114,3.457-0.771,3.028c-1.885-0.457-0.599-2.514-2.856-1.514c-2.284,0.971-1.97,0.657-2.884,0.286
		c-0.914-0.372-2.027-1.058-0.371-1.515c1.656-0.457,2.713-0.657,2.484-1.8c-0.228-1.142-0.971-1.599,0.229-2.286
		c1.199-0.656,2.342-1.285,1.056-1.885c-1.285-0.6-2.399-1.572-2.399-0.229c0,1.372,1.571,1.601,0.143,2.058
		S45.437,8.89,43.866,8.29c-1.599-0.629-1.742-2.143-3.255-1.972c-1.514,0.144-1.971,1.515-2.799,0.458
		c-0.828-1.058-0.686-1.286-0.315-2.115c0.401-0.857,1.885-1.143,0.686-2.143c-0.686-0.543-1.57-1.171-2.17-1.685
		c-0.8-0.057-1.628-0.115-2.142-0.201c-0.314-0.085-0.4,0.029-0.457,0.144c-0.257,0.313-0.485,0.628-1.342,0.371
		c-0.429-0.143-0.714-0.172-0.971-0.228c-0.485-0.058-0.971-0.143-1.942-0.543c-0.714-0.287-1.171-0.401-1.571-0.372
		c-0.371,0.057-0.742,0.257-1.256,0.572c-0.143,0.056-0.286,0.142-0.428,0.228c0.542,1,0.685,1.543,1.399,2.943
		c0.828,1.657,2.57,2.2,1.056,2.342c-1.513,0.144-0.085,1.058-1.57,1.658c-1.514,0.6-3.427,1.372-1.285,1.829
		c2.113,0.428,3.227-0.086,2.399,0.886c-0.828,1-0.828,2.114-0.143,2.056c0.685-0.086,1.513-0.171,0.914,1.058
		c-0.6,1.2,0.142,2.8-1.514,2.399c-1.656-0.371-2.342-2.543-2.884-0.142c-0.514,2.428,1.056,3.857-0.286,4.629
		c-1.37,0.742-1.685-0.915-2.57-0.229c-0.914,0.657-1.057-0.543-2.113-1.457c-1.057-0.886-1.685-2.115-2.742-1.2
		c-1.056,0.914-2.341-1.058-3.313,0c-0.97,1.056-1.37,1.285-1.599,2.428c-0.228,1.115,0.543,1.2,0.914,2.4
		c0.257,0.8,0.314,2.114-0.057,2.372c0.114,0.828,0.229,1.714,0.257,2.343c0.057,0.771,0.057,1.199-0.028,1.685
		c-0.086,0.457-0.286,0.886-0.686,1.6c-0.314,0.543-0.514,0.8-0.685,1.028c-0.228,0.286-0.343,0.429-0.4,1.2
		c-0.143,1.686-0.885,1.686-1.856,1.658H8.939c-0.428,0-1.085,0-1.456,0.172c-0.143,0.085-0.228,0.228-0.114,0.485
		c0.228,0.485,0.685,0.629,1.142,0.771c0.543,0.143,1.057,0.315,1.4,0.886c0.313,0.515,0.57,0.972,0.627,1.485
		c0.086,0.543-0.028,1.115-0.428,1.801c-0.485,0.8-0.799,1.029-1.085,1.285c-0.143,0.115-0.285,0.257-0.457,0.457
		c-0.086,0.115-0.199,0.201-0.285,0.315c-0.343,0.4-0.657,0.743-0.457,1.2c0.086,0.171,0.2,0.371,0.314,0.543
		c0.229,0.371,0.428,0.742,0.457,1.086c0.028,0.514-0.228,0.856-1.057,0.914c-1.085,0.057-1.399,0.086-2.427,0.2l-0.686,0.085
		C3.628,46.061,3,45.804,2.458,45.604c-0.457-0.2-0.8-0.343-1.028,0.057c-0.343,0.543-0.486,1.057-0.457,1.543
		c0,0.457,0.171,0.915,0.485,1.372c0.115,0.171,0.143,0.228,0.2,0.285c0.571,0.857,0.771,1.143,0.657,2.515
		C2.258,51.833,2.344,52.204,2.4,52.49c0.114,0.714,0.199,1.2-0.572,1.743c-0.114,0.057,0,0.285,0.144,0.514
		c0.314,0.543,0.656,1.114-0.058,1.685c-0.342,0.286-0.799,0.543-1.199,0.743c-0.371,0.172-0.742,0.143-0.714,0.229
		c0.086,0.2,0.114,0.372,0.143,0.571c0.028,0.229,0.085,0.487,0.371,0.772c0.571,0.514,0.2,2.029-0.086,2.885h0.2
		c0.657,0,1,0.229,1,1.058c0,0.285-0.029,0.543-0.029,0.742c-0.028,0.429-0.028,0.601,0.343,1.2
		c0.171,0.287,0.371,0.401,0.571,0.487c0.514,0.257,0.942,0.485,1,1.914c0.057,1.028-0.257,1.886-0.771,2.571
		c-0.486,0.657-1.171,1.114-1.885,1.4c0.171,0.6,0.485,1.829,0.457,2.458c0,0.342,0.028,0.657,0.114,0.97
		c0.114,0.286,0.314,0.601,0.628,0.886c0.343,0.343,0.714,0.486,1.143,0.657c0.399,0.172,0.828,0.372,1.341,0.715
		c0.743,0.543,0.715,0.971,0.372,1.485c-0.114,0.143-0.257,0.287-0.429,0.457c-0.199,0.229-0.456,0.487-0.656,0.83
		c-0.4,0.657-0.714,1.457-0.914,1.914c0.228,0.114,0.456,0.228,0.657,0.285c0.97,0.428,1.485,0.629,1.713,1.372l0.029,0.171
		c0.2,0.657,0.456,1.457,1.142,2.143c0.228,0.229,0.2,0.257,0.2,0.257c0.2-0.114,0.514-0.314,1.285-0.228
		c0.999,0.114,1.371,0.4,1.913,0.828c0.229,0.172,0.486,0.372,0.886,0.6c0.285,0.171,0.371,0.086,0.428,0
		c0.286-0.342,0.628-0.743,1.599-0.428c1.457,0.457,1.828,0.857,2.599,1.599l0.143,0.172c0.4,0.4,0.599,0.4,0.97,0.371
		c0.343,0,0.771,0,1.457,0.114c0.857,0.172,1.514,0.315,1.971,0.487c0.542,0.199,0.885,0.457,0.999,0.771
		c0.114,0.285,0.028,1.285-0.371,2.171c-0.257,0.6-0.657,1.2-1.228,1.571c-0.286,0.229-0.6,0.372-0.886,0.543
		c-0.742,0.372-1.313,0.686-1.256,1.914c0.057,1.801-0.171,2.229-0.657,3.144c-0.086,0.114-0.171,0.257-0.228,0.371
		c-0.257,0.457-0.514,0.8-0.8,1.114c-0.4,0.486-0.771,0.943-0.885,1.772c-0.115,0.629-0.143,1.515-0.172,2.4
		c-0.028,1.285-0.057,2.628-0.314,3.285c-0.085,0.229-0.171,0.457-0.285,0.657c-0.286,0.571-0.514,1.086,0.371,1.543h0.029
		l0.314,0.172c1.199,0.628,1.685,0.885,2.513,0.428l0.114-0.028c1.171-0.657,2.57-1.399,3.913-0.972
		c0.399,0.114,0.685,0.229,0.97,0.343c0.486,0.229,0.8,0.343,1.085,0.172c0.057-0.027-0.028-0.286-0.114-0.571
		c-0.2-0.686-0.428-1.456,0.457-1.943c0.571-0.343,1.314-0.485,1.942-0.485c0.771,0,1.428,0.2,1.713,0.6
		c0.143,0.2,0.543,0.458,1.029,0.657c0.485,0.172,1.056,0.286,1.57,0.286h0.8c0.942-0.058,1.799-0.086,2.713,0.371
		c0.485,0.229,1.028,0.4,1.57,0.543c0.629,0.2,1.228,0.371,1.771,0.657c0.286,0.172,0.6,0.143,0.913,0.114
		c0.686-0.028,1.286-0.058,1.829,0.886c0.342,0.657,0.914,1.057,1.371,1.371c0.341,0.229,0.656,0.457,0.799,0.743
		c0.2,0.314,0.114,0.744,0,1.2c-0.057,0.257-0.115,0.544-0.085,0.657c0,0.028,0.056-0.028,0.285-0.086
		c0.543-0.172,0.97-0.2,1.285-0.229c0.399-0.028,0.543-0.028,0.599-0.686c0.058-0.457,0.172-0.972,0.372-1.429
		c0.228-0.543,0.543-1.058,0.885-1.4c0.428-0.399,0.913-0.657,1.456-0.6c0.143,0.028,0.286,0.057,0.457,0.114
		c0.4,0.171,0.857,0.286,1.257,0.371c0.943,0.229,1.713,0.429,1.856,1.229c0.029,0.086,0.057,0.172,0.086,0.229
		c0.142,0.258,0.4,0.486,0.685,0.657c0.257,0.172,0.514,0.258,0.714,0.229c0.028-0.028,0.058-0.028,0.086-0.028
		c0.057-0.028,0.057-0.171,0.086-0.286c0.057-0.6,0.113-1.198,1.656-1.143c0.943,0.058,1.827-0.571,2.655-1.143
		c0.6-0.429,1.171-0.828,1.799-1.028c0.886-0.286,1.8-0.144,2.514-0.058c0.429,0.058,0.77,0.114,0.8,0.086
		c0,0-0.03-0.172-0.03-0.343c-0.028-0.2-0.028-0.429,0-0.657c0.086-0.6,0.401-1.086,1.514-0.943c0.828,0.115,1.371,0.2,1.8,0.286
		c0.456,0.086,0.77,0.2,1.171,0.343c0.142,0.086,0.428-0.057,0.714-0.171c0.656-0.286,1.313-0.572,1.999,0.114
		c0.485,0.485,0.513,1,0.513,1.458c0.029,0.313,0.029,0.599,0.486,0.713c0.428,0.086,0.742,0.2,1,0.287
		c0.313,0.113,0.456,0.17,0.542-0.087c0.057-0.2,0.142-0.371,0.2-0.543c0.228-0.543,0.429-1.057-0.028-1.257
		c-0.287-0.144-0.572-0.144-0.828-0.172c-0.201,0-0.401-0.028-0.572-0.086c-0.485-0.199-0.629-0.6-0.2-1.657v-0.028l0.172-0.371
		c0.199-0.515,0.313-0.799,0.285-0.943c0-0.143-0.2-0.343-0.6-0.771l-0.085-0.085c-0.086-0.115-0.201-0.229-0.286-0.344
		c-0.485-0.629-0.914-1.4-1.114-2.172c-0.228-0.828-0.143-1.629,0.457-2.2c0.028-0.029,0.058-0.057,0.086-0.086
		c0.628-0.486,0.914-0.542,1.199-0.6c0.257-0.057,0.543-0.086,1.314-0.685c0.685-0.543,1.313-0.772,1.828-0.944
		c0.542-0.199,0.942-0.343,1.027-0.885c0.114-0.714,0.286-1.543,0.571-2.143c0.343-0.828,0.858-1.257,1.6-0.8l0.028,0.028
		c0.287,0.172,0.543,0.343,0.8,0.457c0.257,0.115,0.486,0.144,0.572-0.085c0.114-0.228,0.056-0.657,0.028-1.085
		c-0.114-0.944-0.2-1.858,0.8-2.086l-0.029-0.115c-0.057-0.171-0.172-0.342-0.314-0.543c-0.485-0.685-1.4-1.399-2.284-1.628
		c-0.629-0.143-1.057-0.029-1.4,0.057c-0.857,0.2-1.371,0.343-2.227-1.343c-0.371-0.714-0.572-1.2-0.686-1.514
		c-0.228-0.543-0.228-0.572-1.028-1.029c-0.686-0.371-0.828-0.771-0.942-1.114c-0.086-0.286-0.171-0.515-1.457-0.629
		c-1.17-0.114-2.028-0.628-2.627-1.285c-0.857-0.972-1.2-2.2-1.314-3.029c-0.028-0.257-0.114-0.285-0.171-0.314
		c-0.485-0.172-0.886-0.314-0.485-2.172l0.056-0.256c0.401-1.944,0.486-2.287-0.942-2.8c-1.143-0.429-2.513-2.03-3.112-3.258
		c-0.172-0.343-0.315-0.657-0.343-0.914c-0.086-0.371-0.029-0.686,0.171-0.886c0.172-0.171,0.4-0.257,0.685-0.228
		c0.857,0.086,1.2,0.629,1.486,1.086c0.056,0.114,0.142,0.228,0.171,0.285c0.057,0.029,0.114,0,0.371-0.2
		c0.371-0.343,0.743-0.714,1.114-1.114c1.027-1.029,2.084-2.114,3.056-2.172c0.485-0.028,0.742,0.058,0.97,0.143
		c0.229,0.058,0.4,0.114,1.371-0.6c0.628-0.457,1.2-1.057,1.713-1.6c0.943-1.029,1.771-1.914,2.828-1.8
		c0.4,0.029,0.628-0.314,0.856-0.714c0.372-0.629,0.771-1.314,1.771-1.4c0.486-0.057,0.885-0.057,1.2-0.029h0.028
		c0.657,0,1.113,0,1.77-0.629c0.6-0.542,1.2-0.799,1.685-0.97c0.086-0.058,0.2-0.086,0.258-0.115c0.085-0.029,0.171,0.029,0.171,0
		c-0.086-0.143-0.2-0.343-0.343-0.572c-0.314-0.485-0.656-1.056-0.742-1.542c-0.058-0.514,0.142-0.886,0.8-0.971
		c0.656-0.115,1.284,0.028,1.798,0.285c0.572,0.286,0.999,0.743,1.085,1.258c0.058,0.256,0.029,0.542,0,0.828
		c-0.028,0.114-0.056,0.228-0.056,0.342c0,0.229,0.114,0.429,0.714,0.457c0.913,0.03,1.313-0.742,1.628-1.313
		c0.199-0.4,0.371-0.715,0.684-0.857c0.029-0.029,0.086-0.029,0.144-0.058c0.085-0.028,0.199-0.057,0.313-0.085
		c-0.086-0.572-0.228-1.429-0.228-1.972c0-0.286-0.085-0.685-0.2-1.172c-0.171-0.771-0.4-1.713-0.4-2.771
		c0-0.628-0.028-0.714-0.143-0.714h-0.256c-0.287,0.028-0.629,0.057-1.057,0c-0.828-0.172-1.171-0.515-1.229-1.028
		c-0.056-0.429,0.144-0.886,0.401-1.401c0.142-0.342-0.086-0.571-0.429-0.942c-0.257-0.258-0.571-0.572-0.828-0.972
		c-0.885-1.342-0.086-2.514,0.571-3.457l0.057-0.086c0.286-0.4,0-0.857-0.229-1.314c-0.17-0.257-0.313-0.515-0.399-0.8
		c-0.086-0.314-0.171-0.543-0.343-0.8c-0.2-0.286-0.485-0.6-0.942-1.143c-0.885-0.971-0.656-1.428-0.285-2.2
		c0.114-0.228,0.257-0.514,0.371-0.885c0.171-0.572,0.257-0.915,0.2-1.115c-0.058-0.2-0.258-0.372-0.657-0.714
		c-0.486-0.371-1.371-1.086-2.228-1.886c-0.885-0.828-1.799-1.743-2.284-2.514c-0.886-1.372-0.114-1.886,1.057-2.686
		c0.399-0.257,0.884-0.6,1.341-1.029c0.772-0.743,0.486-1.2,0.086-1.771c-0.256-0.429-0.543-0.886-0.685-1.485
		c-0.143-0.572-0.315-1-0.457-1.429c-0.315-0.8-0.628-1.6-0.772-3.114C76.307,16.89,76.334,16.518,76.393,16.233"/>
	<path clip-path="url(#SVGID_2_)" fill-rule="evenodd" clip-rule="evenodd" fill="#D6DDE9" d="M174.858,172.355
		c0.696-1.093,1.478-0.927,2.048-0.805c0.355,0.075,0.584,0.113,0.812-0.008c0.373-0.292,2.288-3.45,2.498-4.249
		c-0.435-0.445-2.307-2.326-2.462-2.462c-0.237-0.2-0.605-0.322-0.996-0.452c-0.512-0.17-1.04-0.346-1.41-0.737
		c-1.093-1.159-2.773-6.815-1.712-8.38c0.274-0.411,0.787-0.556,1.283-0.696c0.315-0.09,0.71-0.201,0.812-0.355
		c0.119-0.178,0.148-0.507,0.178-0.854c0.039-0.45,0.083-0.952,0.322-1.421c-1.336-0.891-2.894-2.205-2.334-3.75
		c0.312-0.856,1.618-1.01,2.668-1.132c0.219-0.025,0.481-0.059,0.676-0.093c-0.234-0.491-0.023-0.98,0.416-1.956
		c0.143-0.314,0.313-0.657,0.457-1.058c0.343-0.771,0.313-1.027,0.143-1.086c-0.171-0.085-0.429-0.114-0.742-0.143
		c-0.372-0.028-0.743-0.058-1.143-0.172c-0.856-0.199-1.284,1.486-1.571,2.715c-0.057,0.257-0.113,0.485-0.171,0.714
		c-0.314,1.086-0.856,1.229-1.514,0.801c-0.399-0.286-0.856-0.915-1.313-1.687c-0.371-0.628-1.257-0.571-2.17-0.485
		c-0.771,0.057-1.543,0.114-2.228-0.172l-0.2-0.085c-1.342-0.571-1.971-0.829-3.256-1.971c-0.885-0.772-0.828-1.315-0.457-1.744
		c0.2-0.2,0.457-0.343,0.714-0.485c0.144-0.086,0.286-0.172,0.372-0.228c0.229-0.173,0.343-0.401,0.399-0.716
		c0.086-0.343,0.028-0.742-0.086-1.171c-0.114-0.343-0.485-0.601-1.113-0.829c-0.714-0.229-1.771-0.428-3.142-0.6
		c-1.485-0.2-2.341-0.4-3.142-0.972c-0.771-0.543-1.428-1.457-2.541-3.086c-1.428-2.143-0.886-2.627-0.515-2.971l-0.257-0.286
		c-0.942-1-1.713-0.913-2.37-0.828c-0.2,0.028-0.371,0.057-0.571,0.057c-0.828,0-1.171-0.599-1.885-1.714
		c-0.257-0.428-0.6-0.943-1.028-1.571c-0.741-1.058-1.513-0.856-2.513-0.601c-0.742,0.172-1.57,0.372-2.599,0.314
		c-1.199-0.057-1.199,0.058-1.256,0.314c-0.085,0.429-0.229,1.057-0.972,1.914c-1.171,1.257-1.456,1.114-1.885,0.943
		c-0.114-0.058-0.285-0.114-0.742,0.114c-0.6,0.313-0.828,0.543-1.057,0.771c-0.343,0.343-0.657,0.656-1.742,0.942
		c-0.429,0.086-0.742,0.2-0.971,0.286c0.628,0.8,1.97,2.514,2.17,3.771c0.086,0.686,0.229,1.257,0.457,1.742
		c0.257,0.457,0.628,0.857,1.228,1.286c0.343,0.2,0.657,0.429,0.973,0.657c0.884,0.657,1.741,1.257,3.084,1.714
		c0.827,0.257,1.084,0.571,0.97,0.914c-0.143,0.458-1.085,0.572-2.17,0.715c-0.371,0.057-0.799,0.114-1.199,0.171
		c-1.028,0.173-1,0.229-0.972,0.457c0.029,0.173,0.058,0.4,0.058,0.629v0.087c0,0.313,0.171,0.543,0.428,0.713
		c0.286,0.2,0.657,0.287,1.057,0.287h0.457c0.457,0.085,0.829,0.37,1.057,0.799c0.2,0.371,0.315,0.857,0.371,1.4
		c0.029,0.429,0,0.914-0.056,1.371c-0.086,0.543-0.258,1.143-0.43,1.771c-0.399,1.371-0.885,3-0.485,4.743
		c0.287,1.229,1.399,1.571,2.57,1.915c1.085,0.313,2.199,0.656,2.941,1.628c0.8,1.028,0.856,1.571,0.4,1.942
		c-0.343,0.229-0.913,0.229-1.686,0.229c-0.429,0-0.914,0-1.456,0.028c-0.457,0.029-0.657-0.085-0.657-0.028
		c0.028,0.201,1,0.857,2.343,1.744l0.799,0.513c0.686,0.458,1.085,0.857,1.286,1.2c0.198,0.372,0.198,0.686,0.056,0.943
		c-0.114,0.258-0.343,0.429-0.628,0.571v-0.028c-0.513,0.258-1.199,0.343-1.685,0.371c-0.4,0.028-0.657,0.344-0.942,0.657
		c-0.286,0.371-0.571,0.714-1.086,0.828l-0.114,0.029c-0.057,0.057-0.199,0.285,0.942,1.057c0.857,0.571,1.286,0.715,1.628,0.858
		c0.515,0.199,0.829,0.313,1.686,1.228l0.199,0.229c1.143,1.228,1.857,2,2.771,1.856c0.285-0.029,0.514-0.114,0.771-0.2
		c0.771-0.314,1.428-0.543,2.999,0.457c0.714,0.457,1.4,0.686,1.942,0.887c0.285,0.085,0.57,0.17,0.771,0.284l0.057-0.114
		c0,0,1.656,0.715,1.999-0.686c0.172-0.742,0.058-1.484-0.057-2.085c-0.142-1-0.257-1.771,0.686-2.144
		c0.229-0.086,0.257-0.171,0.257-0.229c0.114-0.457,0.171-0.743,1.885-0.628c1.486,0.085,1.656,0.628,1.856,1.257
		c0.085,0.344,0.229,0.714,0.971,0.942c0.771,0.258,1.685,0.286,2.542,0.286c1.513,0.028,2.798,0.057,3.112,1.229
		c0.143,0.515,0.172,0.972,0.172,1.371c0.057,0.601,0.057,1,0.57,1.114c0.4,0.114,0.8,0.172,1.171,0.229
		c0.694,0.096,1.277,0.187,1.688,0.495C174.503,173.186,174.73,172.566,174.858,172.355"/>
	<path clip-path="url(#SVGID_2_)" fill-rule="evenodd" clip-rule="evenodd" fill="#D6DDE9" d="M246.766,142.69
		c-0.371-0.629-0.686-1.058-0.914-1.429c-0.714,0.286-1.428,0.515-1.94,0.543c-0.801,0.086-1.829,0.057-2.8-0.144
		c-0.8-0.143-1.57-0.428-2.17-0.828c-0.914-0.629-1.057-0.6-1.428-0.515c-0.029,0-0.086,0.029-0.2,0.058c-0.6,0.114-1,0-1.542-0.2
		c-0.2-0.057-0.429-0.114-0.686-0.2c-0.257-0.057-0.371,0.058-0.514,0.172c-0.258,0.229-0.601,0.485-1.314,0.543
		c-1.171,0.057-2.798-0.657-3.455-0.943l-0.2-0.086h-0.028c-0.086-0.028-0.742,0.115-1.628,0.4
		c-0.885,0.286-1.913,0.686-2.913,1.172c-1,0.485-2.484,1.485-3.969,2.6c-1.714,1.286-3.398,2.686-4.312,3.6
		c-0.6,0.629-0.999,1.172-1.341,1.687c-0.687,1-1.201,1.771-2.686,2.199c-1.942,0.572-2.827,0.572-5.255,0.543h-0.914
		c-1.513,0-2.342,0.086-2.912,0.258c-0.515,0.171-0.8,0.429-1.257,0.856c-0.571,0.515-1.085,0.801-2.027,0.915
		c-0.857,0.085-2.057,0.057-3.97-0.058c-1.857-0.114-3.284-0.086-4.712,0.028c-1.456,0.145-2.885,0.372-4.771,0.715
		c-3.226,0.6-3.312,0.399-3.683-0.515c-0.086-0.171-0.171-0.371-0.371-0.629c-0.628-0.828-0.229-1.742,0.086-2.514
		c0.199-0.429,0.343-0.8,0.229-0.857c-0.314-0.229-1.114-0.514-1.971-0.828c-1.229-0.429-2.599-0.915-3.256-1.486
		c-0.041-0.032-0.066-0.061-0.104-0.093c-0.265,0.125-0.649,0.182-1.175,0.243c-0.642,0.075-1.836,0.215-1.968,0.578
		c-0.286,0.793,0.435,1.738,2.208,2.886l0.158,0.103l0.095,0.59l-0.093,0.139c-0.23,0.346-0.271,0.799-0.309,1.237
		c-0.038,0.439-0.077,0.895-0.317,1.254c-0.276,0.414-0.791,0.56-1.287,0.7c-0.315,0.09-0.707,0.2-0.81,0.354
		c-0.72,1.061,0.584,6.218,1.625,7.322c0.223,0.236,0.63,0.37,1.061,0.514c0.45,0.149,0.916,0.306,1.273,0.609
		c0.138,0.111,2.599,2.579,2.68,2.688c0.151,0.202,0.098,0.453,0.08,0.535c-0.189,0.877-2.324,4.546-2.934,4.881
		c-0.52,0.281-1.007,0.178-1.397,0.095c-0.517-0.11-0.776-0.165-1.149,0.423c-0.125,0.206-0.529,1.403-0.55,1.636l-0.083-0.006
		c0.021,0.089,0.026,0.186-0.003,0.312c-0.029,0.2-0.114,0.4-0.314,0.771c-0.086,0.143-0.171,0.343-0.285,0.571
		c-0.343,0.657-0.543,1.086-0.687,1.458c-0.142,0.313-0.228,0.6-0.342,0.971c-0.143,0.457,0.086,1.686,0.2,2.314
		c0.285-0.057,0.601-0.143,0.971-0.257c0.571-0.144,0.885-0.515,1.143-0.857c0.342-0.4,0.628-0.743,1.199-0.857
		c0.8-0.114,1.285-0.085,1.856-0.057c0.143,0,0.257,0.028,0.342,0.028c0.172,0,0.286-0.143,0.429-0.314
		c0.257-0.314,0.514-0.628,1.057-0.657l0.143-0.028c0.886-0.057,2.628-0.172,3.655,2c0.516,1.028,1.399,1.028,2.199,1.058
		c0.657,0,1.228,0,1.685,0.371l0.144,0.114c0.856,0.714,1.027,0.857,2.027,2.743c0.457,0.887,0.771,1.657,0.971,2.342
		c0.257,0.829,0.343,1.486,0.343,2.029c0,0.171,0,0.4-0.028,0.657c-0.058,0.942-0.172,2.343,0.457,2.457
		c0.628,0.114,1.398,0.172,2.027,0.028c0.428-0.085,0.8-0.257,0.999-0.571c0.314-0.543,0.771-0.942,1.313-1.229
		c0.543-0.285,1.2-0.429,1.828-0.429c0.229,0,0.171,0.114,0.2,0.057c0.114-0.228,0.285-0.57,1.856-0.885
		c1.285-0.229,2.198-0.972,3.112-1.715c0.628-0.514,1.258-1.028,2.056-1.4l0.229-0.113c1.914-0.915,2.771-1.342,3.855-0.457
		c0.172,0.143,0.314,0.257,0.429,0.371c0.6,0.543,1.057,0.914,2.284,1.229c0.4,0.086,0.485-0.058,0.543-0.172
		c0.257-0.485,0.514-0.971,1.885-0.6c1.057,0.287,1.628,0.6,2.085,0.857c0.371,0.2,0.628,0.343,0.971,0.343
		c0.542,0,2.655-0.314,4.483-0.8c1.143-0.286,2.17-0.658,2.57-0.972c0.514-0.457,0.971-0.629,1.399-0.771s0.799-0.286,0.942-0.915
		c0.199-0.685,0.285-1.228,0.229-1.714c-0.058-0.485-0.258-0.971-0.742-1.543c-0.601-0.743-0.572-1.114-0.172-1.428
		c0.143-0.115,0.285-0.2,0.485-0.258c0.343-0.171,0.8-0.371,1.171-0.942c0.314-0.457,0.257-0.829,0.229-1.144
		c-0.086-0.8-0.143-1.399,1.713-2.114c1.285-0.485,1.57-0.971,1.8-1.371c0.257-0.457,0.485-0.886,1.4-1.2
		c0.684-0.257,0.913-0.741,1.141-1.171c0.286-0.57,0.543-1.086,1.371-1.343c0.371-0.086,0.714-0.258,1.028-0.4
		c0.942-0.429,1.656-0.771,2.427,0.173c0.314,0.37,0.457,0.741,0.571,1.113c0.2,0.542,0.371,1.057,1.656,1
		c1.229-0.029,1.514-0.543,1.742-0.972c0.229-0.371,0.429-0.743,0.942-0.886c0.429-0.143,1.2-0.485,1.971-0.829
		c-0.286-0.199-0.6-0.343-0.856-0.457c-0.828-0.371-0.144-1.285-1.656-1.828c-1.514-0.515-1.828-2.142-2.113-2.515
		c-0.314-0.399-0.771-0.886-1.628-0.571c-0.886,0.286-1.601,0.486-1.371-0.343c0.229-0.828-0.285-1.086,1.057-1.713
		c1.371-0.602,1.057-1.802,1.485-2.229c0.399-0.4,1.399,0.514,1.171-1c-0.229-1.515-0.543-1.857-0.571-2.801
		c-0.029-0.942-1.971-2.571-0.657-4.543c1.343-1.972,1.285-2.885,1.628-3.313c0.343-0.458,1.799-0.771,2.283-0.629
		c0.487,0.171,0.287,1.286,1.115-0.657C246.88,143.861,248.108,144.975,246.766,142.69"/>
</g>
</svg>
