<?xml version="1.0" encoding="UTF-8" standalone="no"?>
<!-- Generator: Adobe Illustrator 18.0.0, SVG Export Plug-In . SVG Version: 6.00 Build 0)  -->

<svg
   xmlns:dc="http://purl.org/dc/elements/1.1/"
   xmlns:cc="http://creativecommons.org/ns#"
   xmlns:rdf="http://www.w3.org/1999/02/22-rdf-syntax-ns#"
   xmlns:svg="http://www.w3.org/2000/svg"
   xmlns="http://www.w3.org/2000/svg"
   xmlns:sodipodi="http://sodipodi.sourceforge.net/DTD/sodipodi-0.dtd"
   xmlns:inkscape="http://www.inkscape.org/namespaces/inkscape"
   version="1.1"
   id="Capa_1"
   x="0px"
   y="0px"
   viewBox="0 0 50.622555 66.783127"
   xml:space="preserve"
   sodipodi:docname="promotions_db.svg"
   inkscape:version="0.92.2 (5c3e80d, 2017-08-06)"
   width="50.622555"
   height="66.783127"><metadata
     id="metadata3825"><rdf:RDF><cc:Work
         rdf:about=""><dc:format>image/svg+xml</dc:format><dc:type
           rdf:resource="http://purl.org/dc/dcmitype/StillImage" /><dc:title></dc:title></cc:Work></rdf:RDF></metadata><defs
     id="defs3823" /><sodipodi:namedview
     pagecolor="#ffffff"
     bordercolor="#666666"
     borderopacity="1"
     objecttolerance="10"
     gridtolerance="10"
     guidetolerance="10"
     inkscape:pageopacity="0"
     inkscape:pageshadow="2"
     inkscape:window-width="1595"
     inkscape:window-height="888"
     id="namedview3821"
     showgrid="false"
     inkscape:measure-start="0,0"
     inkscape:measure-end="0,0"
     inkscape:zoom="5.3315851"
     inkscape:cx="37.615013"
     inkscape:cy="35.626177"
     inkscape:window-x="234"
     inkscape:window-y="96"
     inkscape:window-maximized="0"
     inkscape:current-layer="g3788" /><g
     id="g3788"
     transform="translate(-2)"><text
       xml:space="preserve"
       style="font-style:normal;font-weight:normal;font-size:13.33333302px;line-height:1.25;font-family:sans-serif;letter-spacing:0px;word-spacing:0px;fill:#000000;fill-opacity:1;stroke:none"
       x="1.5903267"
       y="66.692307"
       id="text4610"><tspan
         sodipodi:role="line"
         id="tspan4608"
         x="1.5903267"
         y="66.692307"
         style="font-size:6px">Promotionstamm</tspan></text>
<path
       d="m 27,41.185 c -0.827,0 -1.637,-0.016 -2.432,-0.044 -0.483,-0.018 -0.95,-0.049 -1.422,-0.076 -0.296,-0.017 -0.6,-0.028 -0.891,-0.049 C 21.629,40.971 21.021,40.913 20.42,40.851 20.302,40.839 20.178,40.83 20.061,40.817 19.373,40.742 18.703,40.656 18.049,40.56 18.028,40.557 18.005,40.554 17.983,40.551 14.601,40.051 11.699,39.29 9.429,38.384 9.415,38.378 9.399,38.373 9.385,38.367 8.968,38.2 8.578,38.027 8.205,37.851 8.16,37.83 8.112,37.809 8.067,37.787 7.733,37.626 7.423,37.46 7.127,37.293 7.055,37.252 6.981,37.212 6.911,37.171 6.653,37.02 6.418,36.865 6.193,36.71 6.106,36.649 6.016,36.589 5.934,36.528 5.744,36.387 5.573,36.246 5.41,36.103 5.32,36.024 5.23,35.946 5.149,35.866 5.015,35.737 4.897,35.606 4.786,35.475 4.708,35.383 4.633,35.29 4.567,35.198 4.479,35.075 4.404,34.952 4.336,34.829 4.282,34.73 4.234,34.631 4.193,34.532 4.144,34.411 4.105,34.29 4.077,34.17 4.041,34.008 4,33.845 4,33.685 v -8.207 c 0.028,0.026 0.063,0.051 0.092,0.077 0.218,0.191 0.44,0.382 0.69,0.566 3.767,2.85 11.301,5.063 22.219,5.063 10.872,0 18.386,-2.196 22.169,-5.028 0.302,-0.22 0.574,-0.447 0.83,-0.678 h 10e-4 v 3.707 c 0,0.553 0.447,1 1,1 0.553,0 1,-0.447 1,-1 v -7 -0.5 -12 -0.5 C 52.001,9.023 51.954,8.876 51.886,8.741 50.695,3.769 40.195,0 27,0 13.805,0 3.304,3.769 2.115,8.74 2.047,8.875 2,9.022 2,9.185 v 0.5 12 0.5 11.5 0.5 12 c 0,0.161 0.042,0.313 0.115,0.448 1.139,4.833 10.691,7.68 19.81,8.364 0.025,0.002 0.051,0.003 0.076,0.003 0.519,0 0.957,-0.399 0.996,-0.925 0.041,-0.551 -0.371,-1.031 -0.922,-1.072 C 10.961,52.169 4.484,48.784 4.032,46.023 4.024,45.978 4.014,45.935 4,45.892 v -8.414 c 0.028,0.026 0.063,0.051 0.092,0.077 0.218,0.191 0.44,0.382 0.69,0.566 3.767,2.85 11.301,5.063 22.219,5.063 0.553,0 1,-0.447 1,-1 0,-0.553 -0.448,-0.999 -1.001,-0.999 z M 4.601,13.981 c 0.3,0.236 0.624,0.469 0.975,0.696 0.073,0.047 0.155,0.093 0.231,0.14 0.295,0.183 0.605,0.363 0.933,0.538 0.121,0.065 0.242,0.129 0.367,0.193 0.365,0.186 0.748,0.366 1.151,0.542 0.066,0.029 0.126,0.059 0.193,0.087 0.469,0.199 0.967,0.389 1.485,0.572 0.143,0.051 0.293,0.099 0.44,0.149 0.412,0.139 0.838,0.272 1.279,0.401 0.159,0.046 0.315,0.094 0.478,0.139 0.585,0.162 1.189,0.316 1.823,0.458 0.087,0.02 0.181,0.037 0.269,0.056 0.559,0.122 1.139,0.235 1.735,0.34 0.202,0.036 0.407,0.07 0.613,0.104 0.567,0.093 1.151,0.179 1.75,0.257 0.154,0.02 0.301,0.042 0.457,0.062 0.744,0.09 1.514,0.167 2.305,0.233 0.195,0.016 0.398,0.028 0.596,0.042 0.633,0.046 1.28,0.084 1.942,0.114 0.241,0.011 0.481,0.022 0.727,0.03 0.863,0.03 1.741,0.05 2.65,0.05 0.909,0 1.788,-0.021 2.65,-0.05 0.245,-0.008 0.485,-0.02 0.727,-0.03 0.662,-0.03 1.309,-0.068 1.942,-0.114 0.198,-0.015 0.4,-0.026 0.596,-0.042 0.791,-0.065 1.561,-0.143 2.305,-0.233 0.156,-0.019 0.303,-0.042 0.457,-0.062 0.599,-0.078 1.182,-0.164 1.75,-0.257 0.206,-0.034 0.411,-0.068 0.613,-0.104 0.596,-0.105 1.176,-0.218 1.735,-0.34 0.088,-0.019 0.182,-0.036 0.269,-0.056 0.634,-0.142 1.238,-0.296 1.823,-0.458 0.163,-0.045 0.319,-0.092 0.478,-0.139 0.441,-0.128 0.867,-0.262 1.279,-0.401 0.147,-0.05 0.297,-0.098 0.44,-0.149 0.518,-0.184 1.017,-0.374 1.485,-0.572 0.067,-0.028 0.127,-0.059 0.193,-0.087 0.403,-0.176 0.786,-0.356 1.151,-0.542 0.125,-0.064 0.247,-0.128 0.367,-0.193 0.327,-0.175 0.638,-0.354 0.932,-0.538 0.076,-0.047 0.158,-0.093 0.231,-0.14 0.351,-0.227 0.675,-0.459 0.975,-0.696 0.075,-0.06 0.142,-0.12 0.215,-0.18 0.13,-0.108 0.267,-0.215 0.387,-0.324 v 8.207 c 0,0.161 -0.041,0.323 -0.079,0.485 -0.028,0.121 -0.067,0.241 -0.116,0.362 -0.04,0.099 -0.089,0.198 -0.143,0.297 -0.067,0.123 -0.142,0.246 -0.231,0.369 -0.066,0.092 -0.141,0.185 -0.219,0.277 -0.111,0.13 -0.229,0.261 -0.363,0.391 -0.082,0.08 -0.171,0.158 -0.261,0.237 -0.163,0.143 -0.334,0.284 -0.524,0.425 -0.082,0.061 -0.172,0.121 -0.259,0.182 -0.225,0.155 -0.46,0.31 -0.718,0.461 -0.069,0.041 -0.144,0.082 -0.216,0.122 -0.296,0.167 -0.606,0.333 -0.94,0.494 -0.045,0.022 -0.093,0.043 -0.138,0.064 -0.373,0.176 -0.763,0.349 -1.18,0.516 -0.014,0.006 -0.03,0.011 -0.044,0.017 -2.27,0.906 -5.172,1.667 -8.554,2.167 -0.021,0.003 -0.044,0.005 -0.066,0.009 -0.653,0.096 -1.324,0.182 -2.012,0.257 -0.117,0.013 -0.241,0.021 -0.359,0.034 -0.602,0.062 -1.21,0.12 -1.835,0.165 -0.291,0.021 -0.595,0.032 -0.891,0.049 -0.471,0.027 -0.938,0.059 -1.422,0.076 -0.795,0.028 -1.606,0.044 -2.432,0.044 -0.826,0 -1.637,-0.016 -2.432,-0.044 -0.483,-0.018 -0.95,-0.049 -1.422,-0.076 -0.296,-0.017 -0.6,-0.028 -0.891,-0.049 C 21.627,28.97 21.019,28.912 20.418,28.85 20.3,28.838 20.176,28.829 20.059,28.816 19.371,28.741 18.701,28.655 18.047,28.559 18.026,28.556 18.003,28.553 17.981,28.55 14.599,28.05 11.697,27.289 9.427,26.383 9.413,26.377 9.397,26.372 9.383,26.366 8.966,26.199 8.576,26.026 8.203,25.85 8.158,25.829 8.11,25.808 8.065,25.786 7.731,25.625 7.421,25.459 7.125,25.292 7.053,25.251 6.979,25.211 6.909,25.17 6.651,25.019 6.416,24.864 6.191,24.709 6.104,24.648 6.014,24.588 5.932,24.527 5.742,24.386 5.571,24.245 5.408,24.102 5.318,24.023 5.228,23.945 5.147,23.865 5.013,23.736 4.895,23.605 4.784,23.474 4.706,23.382 4.631,23.289 4.565,23.197 4.477,23.074 4.402,22.951 4.334,22.828 4.28,22.729 4.232,22.63 4.191,22.531 4.142,22.41 4.103,22.289 4.075,22.169 4.041,22.008 4,21.845 4,21.685 v -8.207 c 0.12,0.109 0.257,0.216 0.387,0.324 0.072,0.059 0.139,0.12 0.214,0.179 z M 27,2 c 13.555,0 23,4.05 23,7.685 0,3.548 -9.445,7.5 -23,7.5 -13.555,0 -23,-3.952 -23,-7.5 C 4,6.05 13.445,2 27,2 Z"
       id="path3786"
       inkscape:connector-curvature="0" /><g
       transform="matrix(0.04892602,0,0,0.04892602,28.795848,32.606796)"
       id="g4482"><g
         id="g4480"><path
           inkscape:connector-curvature="0"
           d="M 469.488,73.427 432.323,65.166 V 38.99 c 0,-4.161 -3.374,-7.535 -7.535,-7.535 H 388.229 L 382.965,6.876 c -0.858,-4.009 -4.932,-6.651 -8.946,-5.79 L 256.888,26.172 139.955,0.181 c -4.064,-0.904 -8.088,1.659 -8.991,5.721 l -5.68,25.552 H 87.211 c -4.161,0 -7.535,3.374 -7.535,7.535 v 25.136 l -35.748,7.657 c -4.01,0.859 -6.649,4.931 -5.79,8.946 L 75.528,255.305 36.79,429.587 c -0.903,4.062 1.658,8.088 5.721,8.991 l 37.165,8.261 v 26.176 c 0,4.161 3.374,7.535 7.535,7.535 h 36.559 l 5.264,24.579 c 0.858,4.008 4.932,6.652 8.946,5.79 0,0 115.889,-24.924 116.477,-25.232 l 117.587,26.136 c 4.009,0.892 8.1,-1.714 8.991,-5.721 l 5.68,-25.553 h 38.073 c 4.161,0 7.535,-3.374 7.535,-7.535 v -25.136 l 35.748,-7.657 c 4.009,-0.859 6.65,-4.931 5.79,-8.946 L 436.471,256.699 475.209,82.416 c 0.903,-4.061 -1.658,-8.085 -5.721,-8.989 z m -389.812,357.974 -26.54,-5.9 26.54,-119.402 z m 0,-228.688 L 54.453,84.94 79.677,79.538 V 202.713 Z M 369.807,17.4 l 3.01,14.055 H 304.184 Z M 144.04,16.528 211.197,31.455 h -70.475 z m -1.848,478.078 -3.01,-14.055 h 68.633 z m 225.767,0.872 -67.159,-14.927 h 70.476 z m 49.293,-29.997 H 94.747 V 46.525 h 322.505 z m 40.294,-38.416 -25.224,5.402 V 309.292 Z M 432.322,205.907 V 80.604 l 26.54,5.9 z"
           id="path4478" /></g></g><g
       transform="matrix(0.04892602,0,0,0.04892602,28.795848,32.606796)"
       id="g4488"><g
         id="g4486"><path
           inkscape:connector-curvature="0"
           d="m 361.869,328.34 20.722,-27.629 c 1.713,-2.283 1.988,-5.338 0.711,-7.891 -1.276,-2.553 -3.885,-4.165 -6.739,-4.165 H 336.71 c -4.161,0 -7.535,3.374 -7.535,7.535 0,4.161 3.374,7.535 7.535,7.535 h 24.783 l -15.07,20.094 c -2.009,2.68 -2.009,6.363 0,9.042 l 15.07,20.094 H 150.507 l 15.07,-20.094 c 2.009,-2.68 2.009,-6.363 0,-9.042 l -15.07,-20.094 H 301.21 c 4.161,0 7.535,-3.374 7.535,-7.535 0,-4.161 -3.374,-7.535 -7.535,-7.535 H 135.437 c -6.08,0 -9.685,7.181 -6.028,12.056 l 20.722,27.629 -20.722,27.629 c -3.657,4.876 -0.053,12.056 6.028,12.056 h 241.126 c 6.08,0 9.685,-7.181 6.028,-12.056 z"
           id="path4484" /></g></g><g
       transform="matrix(0.04892602,0,0,0.04892602,28.795848,32.606796)"
       id="g4494"><g
         id="g4492"><path
           inkscape:connector-curvature="0"
           d="m 352.45,385.105 h -192.9 c -4.161,0 -7.535,3.374 -7.535,7.535 0,4.161 3.374,7.535 7.535,7.535 h 192.9 c 4.161,0 7.535,-3.374 7.535,-7.535 0,-4.161 -3.374,-7.535 -7.535,-7.535 z"
           id="path4490" /></g></g><g
       transform="matrix(0.04892602,0,0,0.04892602,28.795848,32.606796)"
       id="g4500"><g
         id="g4498"><path
           inkscape:connector-curvature="0"
           d="m 352.45,417.255 h -192.9 c -4.161,0 -7.535,3.374 -7.535,7.535 0,4.161 3.374,7.535 7.535,7.535 h 192.9 c 4.161,0 7.535,-3.374 7.535,-7.535 0,-4.161 -3.374,-7.535 -7.535,-7.535 z"
           id="path4496" /></g></g><g
       transform="matrix(0.04892602,0,0,0.04892602,28.795848,32.606796)"
       id="g4506"><g
         id="g4504"><path
           inkscape:connector-curvature="0"
           d="m 333.512,89.077 c -10.77,-9.001 -23.591,-13.356 -37.077,-12.584 -13.43,0.766 -27.007,6.482 -40.436,17.01 -13.429,-10.528 -27.006,-16.245 -40.436,-17.01 -13.48,-0.77 -26.308,3.583 -37.077,12.584 -24.114,20.155 -32.065,57.884 -17.361,82.39 25.782,42.971 88.308,81.324 90.958,82.935 2.381,1.449 5.451,1.449 7.833,0 2.649,-1.612 65.175,-39.965 90.958,-82.935 14.703,-24.505 6.752,-62.235 -17.362,-82.39 z m 4.439,74.636 c -20.343,33.904 -67.975,66.292 -81.953,75.333 -13.974,-9.033 -61.581,-41.386 -81.95,-75.333 -10.918,-18.195 -4.327,-47.669 14.103,-63.072 7.378,-6.168 15.586,-9.23 24.323,-9.23 12.109,0 25.234,5.886 38.563,17.55 2.841,2.486 7.083,2.486 9.924,0 22.947,-20.079 45.281,-23.035 62.886,-8.32 18.43,15.403 25.021,44.876 14.104,63.072 z"
           id="path4502" /></g></g><text
       xml:space="preserve"
       style="font-style:normal;font-weight:normal;font-size:10.66666698px;line-height:1.25;font-family:sans-serif;letter-spacing:0px;word-spacing:0px;fill:#000000;fill-opacity:1;stroke:none"
       x="-57.29443"
       y="-4.3952255"
       id="text4606"><tspan
         sodipodi:role="line"
         id="tspan4604"
         x="-57.29443"
         y="5.336298" /></text>
</g><g
     id="g3790"
     transform="translate(-2)" /><g
     id="g3792"
     transform="translate(-2)" /><g
     id="g3794"
     transform="translate(-2)" /><g
     id="g3796"
     transform="translate(-2)" /><g
     id="g3798"
     transform="translate(-2)" /><g
     id="g3800"
     transform="translate(-2)" /><g
     id="g3802"
     transform="translate(-2)" /><g
     id="g3804"
     transform="translate(-2)" /><g
     id="g3806"
     transform="translate(-2)" /><g
     id="g3808"
     transform="translate(-2)" /><g
     id="g3810"
     transform="translate(-2)" /><g
     id="g3812"
     transform="translate(-2)" /><g
     id="g3814"
     transform="translate(-2)" /><g
     id="g3816"
     transform="translate(-2)" /><g
     id="g3818"
     transform="translate(-2)" /></svg>